<svg id="Error_404" data-name="Error 404" xmlns="http://www.w3.org/2000/svg" viewBox="0 0 2000 2000"><defs><style>.cls-1{fill:#b6e7f4;}.cls-2{fill:#479ae1;}.cls-3{fill:#e3f5ff;}.cls-4{fill:#a0def9;}.cls-5,.cls-6{fill:#fff;}.cls-6{opacity:0.8;}.cls-7{fill:#88e2ec;}.cls-8{opacity:0.4;}.cls-9{fill:#65a6f8;}.cls-10{fill:#3e6acd;}.cls-11{fill:#141426;}.cls-12{fill:#fecb8a;}.cls-13{fill:#4a4b5f;}.cls-14{fill:#276afb;}.cls-15{fill:#4184f9;}.cls-16{fill:#292969;}.cls-17{fill:#38387c;}.cls-18{fill:#624ae0;}.cls-19{fill:#7859de;}.cls-20{fill:#2b2461;}.cls-21{fill:#e2a86a;}.cls-22{fill:#3cd2e2;}.cls-23{fill:#e27676;}.cls-24{fill:#f68b86;}.cls-25{fill:#f3cdc1;}.cls-26{fill:#f1ac89;}.cls-27{fill:#171636;}.cls-28{fill:#f19996;}.cls-29{fill:#0e207f;}.cls-30{fill:#182e89;}.cls-31{fill:#6048dc;}.cls-32{fill:#4a3dc4;}.cls-33{fill:#3a2eaa;}.cls-34{fill:#ce4d97;}.cls-35{fill:#e764a8;}.cls-36{fill:#2956a5;}.cls-37{fill:#416fd0;}.cls-38{fill:#0b1374;}.cls-39{fill:#3867ca;}.cls-40{fill:#ea77b2;}.cls-41{fill:#fdca88;}.cls-42,.cls-44,.cls-45,.cls-46{fill:none;stroke-linecap:round;}.cls-42,.cls-46{stroke:#141426;}.cls-42{stroke-linejoin:round;stroke-width:5.555px;}.cls-43{fill:#dda466;}.cls-44,.cls-45{stroke:#fff;}.cls-44,.cls-45,.cls-46{stroke-miterlimit:10;stroke-width:5.555px;}.cls-45{stroke-dasharray:27.945 27.945;}.cls-46{stroke-dasharray:27.776;}</style></defs><g id="Background"><path class="cls-1" d="M989.606,874.61c-176.6,11.941-53.39,505.762-53.39,505.762S629.731,519.8,396.661,597.418c-233.071,78.467-33.369,940.74-33.369,940.74s-159.659-340.3-256.174-215.781C10.6,1447.751,170.263,1753.94,170.263,1753.94H1446.508S1166.205,862.669,989.606,874.61Z"/><path class="cls-1" d="M998.8,908.491c181.226,11.454,54.8,485.13,54.8,485.13s314.509-825.457,553.693-751.011c239.185,75.263,34.271,902.356,34.271,902.356s163.825-326.42,262.872-206.978c99.048,120.261-64.812,413.956-64.812,413.956H529.915S817.576,897.037,998.8,908.491Z"/><path class="cls-2" d="M620.29,1256.495c-94.571,6.394-28.591,270.84-28.591,270.84s-164.125-460.842-288.936-419.279c-124.812,42.02-17.87,503.774-17.87,503.774S199.4,1429.6,147.711,1496.278c-51.685,67.138,33.814,231.105,33.814,231.105H864.964S714.86,1250.1,620.29,1256.495Z"/><path class="cls-2" d="M1348.86,1274.638c97.048,6.134,29.345,259.792,29.345,259.792s168.422-442.04,296.507-402.173c128.085,40.3,18.352,483.219,18.352,483.219s87.729-174.8,140.77-110.838c53.041,64.4-34.707,221.676-34.707,221.676H1097.768S1251.812,1268.505,1348.86,1274.638Z"/><path class="cls-3" d="M28.853,1072.92v.01c.01.13.01.26.01.39v.02q0,7.89.11,15.63l.06,3.63c0,.47.01.93.02,1.39,0,.11,0,.23.01.34.01.32.01.64.02.96.03,1.63.07,3.26.11,4.87q.12,5.295.3,10.5c.06,1.74.12,3.48.19,5.2s.14,3.45.21,5.17q.555,12.885,1.43,25.35.825,12.165,1.97,23.93c.02.2.04.4.06.61q.69,7.245,1.5,14.34c.36,3.15.73,6.29,1.12,9.4s.79,6.2,1.21,9.28c.21,1.53.43,3.06.64,4.59q1.3,9.15,2.8,18.05c.03.19.07.38.09.56.21,1.3.44,2.59.66,3.88,16.95,97.63,50.6,172.96,97.71,231.02.03.04.06.07.09.11,63.8,78.63,152.32,125.53,257.48,153.1h.01q21.975,5.775,44.92,10.44,6.15.87,12.58,1.69c.81.1,1.63.22,2.47.31.81.12,1.63.22,2.48.33,1.01.12,2.04.26,3.05.37,1.04.12,2.07.24,3.1.39.71.08,1.43.16,2.17.25.72.08,1.44.18,2.16.26,2.74.31,5.48.66,8.28.97,3.75.43,7.5.83,11.23,1.24h.02c8.03.9,16.1,1.77,24.14,2.59.9.09,1.81.19,2.7.27q5.43.555,10.83,1.11,31.26,3.09,62.51,5.61c1.92.16,3.88.32,5.83.45,3.32.29,6.66.55,10.01.8.72.06,1.43.1,2.17.17.74.04,1.48.1,2.22.16,4.41.33,8.84.66,13.23.95,2.49.2,5,.37,7.49.53q8.325.585,16.69,1.11,4.71.3,9.42.59,14.13.87,28.27,1.6c1.23.07,2.47.14,3.71.2s2.48.14,3.72.2q4.44.225,8.88.44,13.335.645,26.64,1.18,10.14.4,20.29.75c1.95.07,3.89.14,5.84.2s3.89.13,5.83.2c2.45.06,4.91.13,7.36.2.14.01.28.01.42.02l7.36.21c1.41.04,2.82.07,4.23.1l1.41.03c.94.03,1.89.05,2.83.07.14.01.28.01.41.02.41.02.82.03,1.24.03,1.64.04,3.29.08,4.93.11l4.93.12c1.53.03,3.05.06,4.58.08q6.96.135,13.93.25h.01l2.62.03c.88.01,1.76.02,2.64.04,1.25.02,2.5.04,3.76.05,3.75.06,7.51.09,11.27.13,5.23.04,10.48.1,15.69.12.5,0,1,.01,1.49.01v-.01c4.57.04,9.12.04,13.65.04.52,0,1.05-.02,1.57-.02,34.23-.27,69.02-.7,104.16-1.52.19,0,.39-.01.58-.01,115.03-2.69,233.76-9.48,349-28.33l.21-.03c38.15-6.22,75.92-13.78,113.04-22.96q49.935-12.33,98.13-28.76,21.165-7.29,41.94-15.47c12.23-5.83,24.22-11.88,36.14-17.98q8.565-4.38,17.06-8.81c2.28-1.18,4.59-2.37,6.86-3.55,4.55-2.37,9.2-4.78,13.98-7.29,13.6-7.09,28.06-14.75,43.05-23.11.95-.54,1.92-1.07,2.89-1.61,1.97-1.11,3.93-2.22,5.91-3.35,4.53-2.58,9.12-5.22,13.72-7.95,1.52-.87,3.06-1.78,4.57-2.7q12.33-7.32,24.84-15.33c1.58-1.01,3.15-2.02,4.68-3.03,1.58-1.03,3.15-2.05,4.71-3.09s3.15-2.08,4.7-3.13c1.58-1.07,3.15-2.12,4.71-3.19q9.705-6.615,19.33-13.7c1.36-.99,2.69-1.99,4.03-2.98.17-.11.33-.25.5-.37,1.42-1.07,2.86-2.13,4.28-3.24.08-.06.15-.12.23-.18a706.043,706.043,0,0,0,72.13-67.95c2.18-2.33,4.31-4.7,6.45-7.07q9-10.02,17.7-20.48,4.485-5.37,8.87-10.89c.66-.83,1.31-1.65,1.98-2.49a1.132,1.132,0,0,0,.1-.13v-.01c.03-.04.05-.09.08-.13.02-.02.03-.05.05-.07,1.17-1.88,2.34-3.77,3.49-5.67q1.17-1.935,2.32-3.87,1.785-2.985,3.52-6c.74-1.28,1.47-2.55,2.19-3.83.22-.38.44-.76.65-1.15q1.125-1.995,2.23-3.99,2.76-5.01,5.42-10.06c.88-1.69,1.76-3.38,2.62-5.07.02-.04.04-.07.06-.11.58-1.15,1.17-2.3,1.75-3.45q3.585-7.14,6.96-14.37,5.055-10.845,9.64-21.87c.51-1.23,1.01-2.45,1.51-3.68s1-2.46,1.49-3.69.97-2.47,1.46-3.71.96-2.47,1.43-3.71.94-2.48,1.41-3.72q9.555-25.56,16.7-51.92,7.155-26.34,11.95-53.33a669.328,669.328,0,0,0,9.9-94.5q.255-7.17.35-14.36c1.66-115.42-24.68-232.93-72.56-337.6a.535.535,0,0,0-.06-.13q-7.995-17.52-16.83-34.52-6.87-13.275-14.21-26.2-10.86-19.14-22.72-37.46-2.64-4.065-5.33-8.09a682.241,682.241,0,0,0-62.41-80.3l-.02-.02q-5.49-6.075-11.13-11.97c-1.67-1.77-3.37-3.53-5.08-5.27v-.02c-14.57-13.31-29.67-26.22-45.36-38.42l-.21-.18a.835.835,0,0,0-.16-.12,2.141,2.141,0,0,0-.19-.13c-.18-.14-.37-.28-.55-.43a555.74,555.74,0,0,0-50.51-35.06c-.15-.09-.3-.19-.45-.29q-7.56-4.62-15.3-8.96-4.02-2.28-8.09-4.45c-6.9-3.68-13.91-7.2-21.02-10.5a347.462,347.462,0,0,0-85.69-18.85l-.3-.03q-17.79-1.635-35.54-1.61c-68.1,0-136.13,16.96-202.84,39.46q-6.945,2.325-13.87,4.75c-59.08,20.61-117.06,44.94-173.08,65.01H1120c-20.99,7.01-40.44,11.33-59.14,13.12-.42.05-.83.09-1.25.13h-.04a210.419,210.419,0,0,1-71.7-5.9c-.23-.06-.46-.13-.69-.19-18.27-4.65-36.92-11.57-56.82-20.58-.11-.05-.23-.1-.34-.15s-.22-.11-.34-.16c-127-63.31-259.04-72.84-381.59-43.16-.1.02-.21.04-.31.07a.037.037,0,0,0-.03.01c-2.12.51-4.25,1.04-6.36,1.58a611.355,611.355,0,0,0-75.67,24.65,644.869,644.869,0,0,0-63.31,29.31,698.558,698.558,0,0,0-151.18,108.66q-4.26,4.005-8.46,8.09c-1.73,1.68-3.44,3.36-5.15,5.06s-3.41,3.4-5.11,5.11-3.38,3.43-5.05,5.16c-1.64,1.69-3.27,3.38-4.89,5.09-.1.11-.21.22-.32.34-1.45,1.53-2.9,3.07-4.33,4.61-.37.38-.73.77-1.07,1.15q-1.62,1.725-3.19,3.46c-.65.69-1.28,1.38-1.91,2.08q-1.53,1.665-3.03,3.35c-.5.55-.99,1.1-1.48,1.65q-1.545,1.725-3.06,3.46-1.965,2.19-3.85,4.41-1.44,1.635-2.84,3.28c-.51.58-1.01,1.16-1.49,1.75-.97,1.12-1.92,2.25-2.87,3.38q-5.58,6.63-11,13.4v.01l-1.61,2q-2.07,2.61-4.11,5.22t-4.06,5.26c-.03.04-.06.07-.08.1-.12.16-.24.31-.36.47q-2.16,2.835-4.32,5.69-9.27,12.36-18.02,25.11-2.88,4.185-5.66,8.4-1.59,2.37-3.15,4.76-1.875,2.865-3.71,5.75c-.64.99-1.28,1.99-1.9,2.99-.85,1.32-1.68,2.65-2.51,3.98-.56.88-1.11,1.77-1.64,2.66-.74,1.18-1.47,2.36-2.19,3.55-.57.91-1.12,1.83-1.66,2.75-.85,1.38-1.67,2.76-2.49,4.14-.48.8-.96,1.6-1.42,2.4q-1.395,2.34-2.74,4.69c-.3.49-.58.97-.85,1.46q-1.86,3.21-3.67,6.45c-1.22,2.16-2.42,4.33-3.62,6.5-.09.16-.18.33-.27.49q-1.86,3.4-3.69,6.84c-1.24,2.32-2.46,4.64-3.68,6.97v.01a689.55,689.55,0,0,0-43.99,104.6q-6.525,20.055-11.79,40.54c-.27,1.03-.53,2.06-.79,3.09q-2.88,11.415-5.34,22.94c-.43,2.04-.86,4.1-1.28,6.15q-1.155,5.67-2.21,11.37c-.11.64-.23,1.28-.35,1.92q-.96,5.28-1.83,10.58c-.1.58-.19,1.16-.28,1.75q-.945,5.79-1.78,11.61A625.756,625.756,0,0,0,28.853,1072.92Z"/><ellipse class="cls-3" cx="1039.135" cy="1757.739" rx="906.408" ry="71.664"/><ellipse class="cls-4" cx="317.889" cy="1760.345" rx="110.571" ry="20.406"/><ellipse class="cls-4" cx="1043.392" cy="1760.345" rx="676.967" ry="20.406"/><ellipse class="cls-4" cx="1799.972" cy="1758.05" rx="110.571" ry="14.3"/><g id="Cloud"><path class="cls-5" d="M96.984,778.535c52.425,30.886,110.107,55.7,166.229,79.475C381.258,908.031,501.5,958.653,613.326,971.918c108.085,12.814,193.5-10.607,267.727-40.777,11.208-4.541,8.689-23.064-3.189-23.8-63.356-3.906-138.462-27.316-212.194-54.747-160.035-59.554-324.485-140.034-458.2-244.768a796.427,796.427,0,0,0-58.144,78.123c-1.248,1.872-2.392,3.64-3.455,5.246-4.044,6.17-8.828,13.669-14.108,22.416-7.211,11.925-15.322,26.184-23.769,42.6q-3.448,6.726-6.979,13.912C99.677,772.873,98.325,775.681,96.984,778.535Z"/><path class="cls-5" d="M398.151,452.918q64.857,56.556,133.887,116.763c46.543,40.6,95.316,83.033,153.587,116.311C760.8,728.884,845.441,753.38,934.5,776.259c16.35,4.206,27.223-13.461,13.369-21.654C841.27,691.481,749.674,605.986,657.778,542.261c-64.627-44.833-132.685-80.492-196.191-117.329A547.8,547.8,0,0,0,398.151,452.918Z"/><path class="cls-5" d="M28.857,1073.324q-.121,19.342.924,39.379,12.444,5.408,24.693,10.734,20.522,8.927,40.5,17.6h.011q11.406,4.957,22.66,9.845c25.651,11.151,50.922,22.116,75.8,28.1,30.516,7.3,59.218,6.817,85.252,3.35,51.107-6.805,94-25.1,125.474-52.389-57.312-13.358-118.749-27.7-184.763-43.089-41.574-9.683-87.2-20.81-131.9-40.291a.905.905,0,0,1-.115-.047.011.011,0,0,1-.012-.011q-10.5-4.559-20.926-9.8c-6.147-3.085-12.248-6.343-18.3-9.821q-8.353-4.785-16.592-10.1C29.908,1035.077,28.961,1053.935,28.857,1073.324Z"/><path class="cls-5" d="M922.316,509.121c30.343,28.09,64.372,51.755,96.078,72.577,199.993,131.367,380.538,229,542.7,297.4,121.65,51.3,235.015,87.124,339.887,119.871,15.137,4.737,30.124,9.406,44.972,13.889,12.653,3.813,25.178,7.476,37.623,10.908a808.893,808.893,0,0,0-9.441-126.48c-.277-1.8-.554-3.594-.832-5.385-5.211-33.185-11.913-63.91-18.88-91.029A426.543,426.543,0,0,0,1896.37,797c-7.984,0-16.524.069-24.069-5.7-9.614-7.325-14.906-21.885-22.463-33.278-19.5-29.395-51.292-34.433-78.943-34.711-86.407-.855-175.623,17.9-273.458-20.128-33.786-13.138-68.2-32.874-103.439-42.927-28.564-8.146-56.677-9.636-85.5-13.554-106.582-14.466-228.024-64.5-351.731-147.382-.011.011-.011.011-.011,0-.948.335-1.884.658-2.808.959q-11.977,3.987-23.584,6.9C927.665,507.862,924.973,508.521,922.316,509.121Z"/><path class="cls-5" d="M1402.687,474.052a256.227,256.227,0,0,0,43.447,50.738c80.237,71.663,190.413,78.076,292.743,81.427q71.322,2.34,142.645,4.668a610.134,610.134,0,0,0-56.6-86.222c-8.435-10.712-17.529-21.446-27.327-32.088q-3.9-4.264-7.985-8.481c-1.028-1.087-2.08-2.161-3.143-3.247q-3.9-3.987-7.949-7.95c-66.915,25.548-141.155,22.093-209.7,1.664-43.561-12.988-85.217-32.423-125.647-55C1412.59,402.47,1382.385,443.143,1402.687,474.052Z"/><path class="cls-6" d="M1137.791,770.736c57.532,73.1,110.892,140.784,172.653,205.03,57.382,59.692,124.712,118.368,196.341,164.206,46.8,29.962,94.473,53.95,140.877,77.279,80.619,40.489,160.036,80.376,238.47,118.172q5.269-6.862,10.215-13.865v-.012q5.7-8.094,10.965-16.327c.012-.012.012-.023.023-.035.105-.219.232-.45.336-.67.728-1.433,1.467-2.866,2.195-4.31.832-1.664,1.676-3.328,2.5-5,1.132-2.265,2.253-4.553,3.351-6.841.254-.5.5-1,.739-1.5q1.578-3.242,3.132-6.528c.89-1.872,1.779-3.756,2.646-5.651.624-1.34,1.248-2.681,1.848-4.009.139-.289.289-.6.417-.89.785-1.687,1.548-3.374,2.311-5.073q3.517-7.748,6.886-15.587-10.762-3.727-21.423-7.06-5.563-1.75-11.058-3.409c-45.214-13.612-89.4-24.473-136.44-45.445-38.42-17.136-77.614-40.512-116.438-64.511C1488.864,1030.131,1318.545,911.336,1137.791,770.736Z"/></g><path class="cls-7" d="M28.861,1073.327c.035,58.145,4.321,110.523,12.525,157.69q14.109,24.16,29.824,47.052c28.633,41.724,61.206,79.89,97.373,113.237a572.961,572.961,0,0,0,51.766,42.488c2.865,2.1,5.765,4.16,8.666,6.182C331.6,1511.57,451.666,1543.8,607.981,1565.011q33.416,4.542,69.132,8.493,25.582,2.861,52.413,5.523c50.149,5.027,103.659,9.718,160.949,14.733,122.389,10.734,235.766,20.66,341.3,23.687q32.1.936,63.252.959h3.073V868.852c0-58.087-49.974-105.161-111.654-105.161H1171.1c-61.68,0-111.667,47.074-111.667,105.161v125L489.682,725.641V1448.78H343.408v-875.4H242.777A726.245,726.245,0,0,0,104.719,758.757v396.414H66.241V863.363h-5.5C38.914,930.393,27.52,1001.144,28.861,1073.327Z"/><path class="cls-7" d="M1894.271,1118.149v206.035c.693-.878,1.387-1.745,2.08-2.623v-.011c39.021-62.42,64.107-131.518,76.932-203.4Z"/><path class="cls-7" d="M1432.862,1570.92v28.474q49.941-12.333,98.132-28.765,21.167-7.288,41.944-15.472c12.225-5.83,24.217-11.875,36.131-17.978,5.714-2.915,11.39-5.87,17.065-8.8,2.274-1.186,4.587-2.372,6.861-3.557,4.548-2.371,9.193-4.781,13.974-7.289,13.606-7.094,28.066-14.752,43.051-23.109.953-.544,1.924-1.069,2.9-1.613,1.963-1.108,3.926-2.216,5.909-3.343,4.528-2.585,9.115-5.229,13.722-7.95,1.516-.874,3.051-1.788,4.567-2.7q12.332-7.319,24.839-15.335c1.575-1.011,3.149-2.022,4.684-3.032,1.575-1.03,3.149-2.041,4.7-3.091,1.574-1.03,3.148-2.079,4.7-3.129,1.575-1.069,3.149-2.118,4.7-3.187q9.708-6.618,19.339-13.7c1.36-.991,2.682-1.982,4.023-2.974.175-.116.33-.252.505-.369,1.419-1.069,2.857-2.138,4.276-3.246l.234-.175a706.976,706.976,0,0,0,72.127-67.948c2.177-2.332,4.315-4.7,6.452-7.075V1241.285l-71.893-17.59-39.086-9.562-53.644-13.12v-.369c0-20.311-14.791-38.716-38.716-52.069-1.128-.622-2.274-1.225-3.44-1.827a154.718,154.718,0,0,0-26.492-10.671q-5.831-1.777-11.992-3.245a225.219,225.219,0,0,0-51.486-5.812c-72.963,0-132.126,32.964-132.126,73.624V1570.92Z"/><g class="cls-8"><path class="cls-5" d="M1690.02,1494.42c.953-.544,1.924-1.069,2.9-1.613,1.963-1.108,3.926-2.216,5.909-3.343,4.528-2.585,9.115-5.229,13.722-7.95,1.516-.874,3.051-1.788,4.567-2.7q12.332-7.319,24.839-15.335c1.575-1.011,3.149-2.022,4.684-3.032,1.575-1.03,3.149-2.041,4.7-3.091,1.574-1.03,3.148-2.079,4.7-3.129,1.575-1.069,3.149-2.118,4.7-3.187q9.708-6.618,19.339-13.7c1.36-.991,2.682-1.982,4.023-2.974.175-.116.33-.252.505-.369,1.419-1.069,2.857-2.138,4.276-3.246l.234-.175c1.36-1.03,2.74-2.079,4.1-3.148,1.341-1.011,2.662-2.06,3.964-3.091,1.089-.874,2.177-1.729,3.266-2.6q1.749-1.37,3.5-2.8c.972-.777,1.963-1.593,2.935-2.39,1.264-1.03,2.527-2.1,3.79-3.149,1.3-1.108,2.624-2.216,3.926-3.324,1.5-1.263,2.974-2.526,4.432-3.829,1.321-1.127,2.6-2.254,3.906-3.4,1.2-1.049,2.391-2.118,3.577-3.207.855-.758,1.71-1.535,2.546-2.313,1.38-1.263,2.779-2.546,4.159-3.829.739-.7,1.5-1.4,2.235-2.118.7-.641,1.361-1.263,2.041-1.924.991-.953,1.982-1.9,2.974-2.877.233-.214.466-.447.7-.68,1.108-1.088,2.216-2.157,3.3-3.265.389-.37.8-.758,1.167-1.166,1.146-1.108,2.274-2.255,3.382-3.4.233-.214.447-.447.66-.661,1.069-1.069,2.119-2.176,3.188-3.284.447-.486.913-.953,1.341-1.438,1.108-1.147,2.216-2.294,3.285-3.46a.042.042,0,0,0,.038-.039q.759-.788,1.458-1.574c.486-.525.972-1.069,1.458-1.594l.8-3.382,6.452-27.074,26.57-111.622.058-.233,25.111-105.537L1973.3,891.9c-17.376-110.572-51.195-193.914-56.773-207.169q-2.508-5.948-5.559-13.042a.971.971,0,0,0-.058-.136c-4.49-10.379-9.932-22.468-16.521-35.8l-.311,1.283-137.354,577.1-2.274,9.562Z"/><path class="cls-5" d="M1218.069,1634.307l4.725-.485q43.869-4.542,87.633-10.238c.543-.058,1.086-.138,1.629-.208q44.925-5.841,89.712-12.895a564.6,564.6,0,0,0,128.363-36.236L1789.62,484.1c-1.029-1.087-2.08-2.161-3.143-3.247q-6.448-6.6-13.288-13.127v-.011c-2.23-2.126-4.507-4.253-6.806-6.344-1.56-1.456-3.155-2.9-4.761-4.345-.531-.485-1.074-.959-1.618-1.432q-3.015-2.686-6.1-5.339-4.248-3.673-8.632-7.268c-.428-.358-.878-.728-1.317-1.074q-14.8-12.1-31.129-23.5c-.682-.485-1.364-.959-2.057-1.433-.971-.67-1.953-1.34-2.935-2.01-4.645-3.143-9.59-6.633-14.883-10.3q-1.767-1.248-3.605-2.5c-.936-.658-1.895-1.3-2.854-1.952-6.875-4.692-14.305-9.568-22.382-14.34-4.714-2.808-9.648-5.581-14.825-8.25-3.119-1.629-6.32-3.224-9.625-4.761-1.629-.751-3.293-1.514-4.968-2.253-1.11-.5-2.23-.971-3.351-1.444v-.012c-2.531-1.063-5.119-2.115-7.754-3.108a221.8,221.8,0,0,0-46.242-12.237c-1.352-.208-2.716-.4-4.079-.6-.994-.15-1.988-.277-2.993-.416-12.837-1.71-25.663-2.75-38.443-3.224q-3.951-.156-7.9-.231Z"/><path class="cls-5" d="M630.253,1644.14q8.325.585,16.69,1.11,4.71.3,9.42.59,14.13.87,28.27,1.6c1.23.07,2.47.14,3.71.2s2.48.14,3.72.2q4.44.225,8.88.44,13.335.645,26.64,1.18,10.14.4,20.29.75c1.95.07,3.89.14,5.84.2s3.89.13,5.83.19c2.45.07,4.91.15,7.36.21.14.01.28.01.42.02q3.675.105,7.35.2c1.41.04,2.83.08,4.24.11l1.41.03c.94.03,1.89.05,2.83.07.14.01.28.01.41.02.42.01.83.02,1.24.02l4.93.12c1.64.04,3.28.08,4.92.11l4.59.09q6.96.135,13.93.25h.01l2.62.03c.88.01,1.76.02,2.64.04,1.25.02,2.5.04,3.76.05,3.75.06,7.51.09,11.27.13q7.86.075,15.69.12c.5,0,1,.01,1.49.01v-.01l14.45-60.68,84.75-356.07,2.8-11.77.5-2.09,59.46-249.8L1029,902.98l1.92-8.09,62.99-264.6,11.1-46.66,2.44-10.25,1.93-8.09,26.81-112.64c-2.02.7-4.03,1.37-6.06,2.03-3.37,1.12-6.72,2.21-10.11,3.22H1120c-2.85.89-5.71,1.74-8.56,2.56-10.44,2.99-20.79,5.54-31,7.51-.79.16-1.58.31-2.35.45a.808.808,0,0,1-.2.03c-.38.08-.76.14-1.14.2q-3.03.57-6.06,1.02a5.963,5.963,0,0,1-.7.11c-3.07.48-6.1.9-9.13,1.24-.64.08-1.27.15-1.91.22-5.17.55-10.29.92-15.36,1.08a164.016,164.016,0,0,1-19.51-.45c-5.02-.42-10.04-1.08-15.05-1.93-1.25-.2-2.5-.42-3.74-.67-.45-.09-.9-.17-1.32-.25q-8.07-1.59-16.1-3.77c-.23-.06-.46-.13-.69-.19-.8-.22-1.6-.44-2.4-.67h-.01c-4.08-1.15-8.14-2.4-12.21-3.75h-.01c-.38-.11-.77-.24-1.16-.37-13.66-4.53-27.34-10-41.03-15.79-.11-.05-.23-.1-.34-.15s-.23-.09-.34-.14h-.01c-.88-.37-1.76-.74-2.63-1.12q-4.935-2.1-9.89-4.26l-11.31,47.52-8.08,33.94-10.72,45.02-1.92,8.09L856.5,693.63h-.01l-13.63,57.3-30.18,126.76-4.09,17.2-.47,1.96-1.45,6.13-13.69,57.51-62.16,261.12-.49,2.09-2.81,11.77-79.65,334.64Z"/><path class="cls-5" d="M28.862,1073.329q-.156,24.023,1.5,49.12c.74,10.861,1.988,29.488,4.957,53.337,1.791,14.27,4.183,30.424,7.442,47.918,1.652,8.84,3.524,18.026,5.65,27.489,17.1,76.008,50.737,169.626,118.056,244.871q7.35,8.215,15.253,16.131a383.361,383.361,0,0,0,55.116,45.8c17.16,11.728,35.2,23.317,62.062,34.11a388.2,388.2,0,0,0,45.11,14.8c4.449,1.2,9.094,2.369,13.912,3.536q5.079,1.2,10.446,2.4c8.585,1.895,17.748,3.755,27.547,5.558L688.6,388.736q-10.017-.156-20.048-.023h-.011c-3.4.046-6.818.1-10.215.2-4.171.116-8.331.278-12.5.463q-27.315,1.246-54.481,4.668h-.024a642.156,642.156,0,0,0-73.962,13.785c-214.24,53.221-330.748,221.669-368.024,278.126-1.247,1.872-2.391,3.64-3.455,5.246-4.044,6.17-8.827,13.669-14.108,22.416-7.21,11.925-15.322,26.184-23.769,42.6q-3.449,6.726-6.979,13.912Z"/></g><path class="cls-9" d="M42.753,1223.7c.21,1.11.42,2.22.64,3.33.09.48.19.96.28,1.44.15.8.31,1.6.47,2.41.07.36.14.72.21,1.07.24,1.17.47,2.34.72,3.52.18.9.37,1.81.56,2.72v.01q.6,2.955,1.23,5.95.75,3.495,1.55,7.05t1.65,7.17q.735,3.12,1.51,6.27c.38,1.55.76,3.11,1.16,4.67.29,1.15.58,2.3.88,3.45.33,1.32.68,2.64,1.03,3.96q.465,1.8.96,3.6,1.02,3.81,2.1,7.65c.34,1.2.68,2.39,1.02,3.59q1.485,5.16,3.07,10.36c.32,1.08.65,2.15.99,3.23.68,2.21,1.39,4.43,2.1,6.65s1.44,4.42,2.17,6.64q1.35,4.02,2.76,8.07c.45,1.3.91,2.61,1.38,3.92s.94,2.61,1.41,3.92c.5,1.39,1.01,2.77,1.53,4.16.46,1.24.93,2.48,1.4,3.72.55,1.45,1.1,2.9,1.67,4.36.46,1.18.92,2.36,1.39,3.54.54,1.36,1.08,2.73,1.64,4.1.51,1.27,1.03,2.54,1.56,3.82.09.24.19.48.29.71,1,2.4,2.01,4.81,3.05,7.22.56,1.32,1.13,2.64,1.72,3.96s1.17,2.65,1.76,3.97,1.19,2.64,1.8,3.97,1.21,2.64,1.83,3.96,1.24,2.64,1.87,3.96,1.26,2.64,1.91,3.96,1.29,2.64,1.95,3.96c.58,1.18,1.18,2.37,1.78,3.55l.39.78c.61,1.19,1.22,2.38,1.84,3.57.64,1.24,1.3,2.49,1.95,3.74.13.24.26.49.39.73q1.785,3.36,3.63,6.71c.11.2.23.41.34.61.72,1.31,1.45,2.61,2.19,3.92.65,1.15,1.31,2.31,1.97,3.46q4.6,8.025,9.58,15.95c.8,1.29,1.62,2.57,2.44,3.85s1.64,2.56,2.48,3.83c.67,1.03,1.36,2.07,2.05,3.1q1.5,2.265,3.04,4.51,2.58,3.795,5.28,7.55c.58.82,1.17,1.64,1.76,2.46.23.32.46.64.7.96.2.28.4.56.61.83q3.9,5.355,8.02,10.61,1.44,1.845,2.89,3.67c.97,1.21,1.95,2.43,2.94,3.64q1.41,1.725,2.85,3.45a1.913,1.913,0,0,0,.27.32q4.425,5.325,9.1,10.55c.419.467.855.927,1.278,1.393,1.448,1.6,2.9,3.2,4.392,4.787.6.66,1.22,1.31,1.83,1.96q3.825,4.035,7.76,7.99,3.09,3.1,6.27,6.14,12.7,12.18,26.81,23.42,10.6,8.415,22.04,16.24c17.15,11.73,35.2,23.32,62.06,34.11q4.785,1.935,9.95,3.82c2.59.95,5.25,1.89,8,2.82q8.25,2.79,17.55,5.49,3.105.9,6.34,1.79c1.08.3,2.17.59,3.27.89,4.45,1.2,9.1,2.37,13.9,3.53q3.825.9,7.79,1.8c.89.19,1.78.39,2.67.59,1.4.31,2.81.63,4.25.93.54.13,1.08.24,1.62.36q.3.06.63.12c.02,0,.03.01.05.01,2.21.47,4.47.94,6.76,1.4,1.15.23,2.3.46,3.47.7q3.5.69,7.11,1.37c1.21.22,2.42.45,3.65.67,12.38,2.28,25.77,4.45,40.33,6.55,1.77.26,3.53.51,5.34.74q6.15.87,12.58,1.69c.81.1,1.63.22,2.47.31.81.12,1.63.22,2.48.33,1.01.12,2.04.26,3.05.37,1.04.12,2.07.24,3.1.39.71.08,1.43.16,2.17.25.72.08,1.44.18,2.16.26,2.74.31,5.48.66,8.28.97,3.75.43,7.5.83,11.23,1.24h.02c8.03.9,16.1,1.77,24.14,2.59.9.09,1.81.19,2.7.27q5.43.555,10.83,1.11,31.26,3.09,62.51,5.61c1.92.16,3.88.32,5.83.45,3.32.29,6.66.55,10.01.8.72.06,1.43.1,2.17.17.74.04,1.48.1,2.22.16,4.41.33,8.84.66,13.23.95,2.49.2,5,.37,7.49.53q8.34.57,16.69,1.1l9.42.6q14.13.87,28.27,1.6c1.23.07,2.47.14,3.71.2s2.48.13,3.71.19l8.89.45q13.335.645,26.64,1.18,10.155.4,20.29.74c1.95.08,3.89.15,5.84.21s3.89.13,5.83.2c2.45.06,4.91.13,7.36.2.14.01.28.01.42.02l7.36.21c1.41.04,2.82.07,4.23.1l1.41.03,2.83.06.41.03c.41.02.82.03,1.24.03,1.64.04,3.29.08,4.93.11l4.93.12c1.53.03,3.05.06,4.58.08q6.96.135,13.93.25h.01l2.62.03,2.65.03q1.875.045,3.75.06c3.75.06,7.51.09,11.27.13,5.23.04,10.48.1,15.69.12h1.49c4.57.04,9.12.04,13.65.04h1.55c12.19.02,24.34-.06,36.52-.17q33.855-.36,67.66-1.37c.19,0,.39-.01.58-.01q15.84-.48,31.68-1.11,24.435-.96,48.83-2.28c.29,0,.6-.02.87-.04q64.32-3.465,128.43-9.31,18.84-1.74,37.65-3.67l2.36-.24,2.36-.24q5.49-.57,10.97-1.15,38.385-4.1,76.67-9.08c.15-.02.29-.03.43-.06.4-.05.78-.11,1.18-.15,2.52-.32,5.05-.66,7.57-1l.21-.03q5.025-.66,10.05-1.34c.13-.02.26-.04.39-.05q5.025-.69,10.07-1.39c3.42-.47,6.83-.95,10.25-1.44q15.375-2.175,30.73-4.5c3.6-.54,7.21-1.1,10.81-1.65,3.21-.5,6.43-1,9.64-1.51q3.8-.6,7.52-1.23c.17-.03.34-.06.51-.08,1.26-.23,2.51-.44,3.76-.67,1.29-.23,2.58-.46,3.86-.7.17-.03.34-.06.51-.1,1.07-.2,2.14-.4,3.21-.61a.433.433,0,0,0,.05-.01c1.24-.24,2.47-.49,3.71-.74.95-.19,1.89-.37,2.84-.57s1.89-.39,2.82-.59c2.35-.49,4.66-.99,6.95-1.52,1.27-.27,2.51-.56,3.76-.85,1.39-.32,2.79-.65,4.19-1,1.15-.27,2.3-.54,3.42-.83q1.245-.285,2.46-.6c.81-.21,1.61-.41,2.42-.63.65-.16,1.31-.33,1.96-.5s1.29-.34,1.93-.51c.55-.14,1.11-.29,1.66-.43,1.05-.28,2.1-.57,3.14-.85,1.18-.33,2.35-.65,3.52-.98.65-.19,1.29-.37,1.94-.56.68-.19,1.37-.38,2.06-.58a.035.035,0,0,1,.02-.01c.69-.2,1.38-.4,2.06-.61,1.6-.47,3.19-.93,4.78-1.42.66-.19,1.33-.41,1.99-.6,2.04-.62,4.08-1.26,6.08-1.91.45-.13.87-.29,1.3-.42,1.11-.36,2.2-.71,3.3-1.08.6-.2,1.2-.4,1.79-.6.23-.07.47-.15.7-.23.45-.14.89-.29,1.33-.44s.9-.29,1.34-.45q3.135-1.065,6.22-2.16,3.21-1.125,6.37-2.29c1.6-.58,3.19-1.16,4.78-1.76,1.25-.47,2.5-.94,3.75-1.42l3.18-1.23c.38-.14.76-.28,1.13-.44.96-.37,1.92-.74,2.87-1.12,2.41-.95,4.81-1.92,7.18-2.9h.01c14.71-6,28.9-12.42,42.79-19.08,12.23-5.83,24.22-11.88,36.14-17.98q8.565-4.38,17.06-8.81c2.28-1.18,4.59-2.37,6.86-3.55,4.55-2.37,9.2-4.78,13.98-7.29,13.6-7.09,28.06-14.75,43.05-23.11.95-.54,1.92-1.07,2.89-1.61,1.97-1.11,3.93-2.22,5.91-3.35,4.53-2.58,9.12-5.22,13.72-7.95,1.52-.87,3.06-1.78,4.57-2.7q12.33-7.32,24.84-15.33c1.58-1.01,3.15-2.02,4.68-3.03,1.58-1.03,3.15-2.05,4.71-3.09s3.15-2.08,4.7-3.13c1.58-1.07,3.15-2.12,4.71-3.19q9.705-6.615,19.33-13.7c1.36-.99,2.69-1.99,4.03-2.98.17-.11.33-.25.5-.37,1.42-1.07,2.86-2.13,4.28-3.24.08-.06.15-.12.23-.18,1.36-1.03,2.74-2.08,4.1-3.15,1.34-1.01,2.67-2.06,3.97-3.09l3.26-2.6c1.17-.91,2.34-1.85,3.5-2.8.97-.78,1.96-1.59,2.94-2.39,1.26-1.03,2.52-2.1,3.79-3.15,1.3-1.11,2.62-2.21,3.92-3.32,1.5-1.27,2.98-2.53,4.43-3.83,1.33-1.13,2.61-2.26,3.91-3.4,1.21-1.05,2.39-2.12,3.58-3.21.85-.76,1.71-1.54,2.54-2.31,1.38-1.27,2.78-2.55,4.16-3.83.74-.7,1.5-1.4,2.24-2.12.7-.64,1.36-1.26,2.04-1.92.99-.96,1.98-1.91,2.97-2.88.24-.21.47-.45.7-.68,1.11-1.09,2.22-2.16,3.31-3.27.38-.37.79-.75,1.16-1.16,1.15-1.11,2.28-2.26,3.38-3.4.24-.22.45-.45.66-.66,1.07-1.07,2.12-2.18,3.19-3.29.45-.49.92-.95,1.34-1.44,1.11-1.14,2.22-2.29,3.29-3.46a.043.043,0,0,0,.04-.04c.5-.52.99-1.05,1.45-1.57.49-.53.98-1.07,1.46-1.59.31-.33.62-.66.92-1,.4-.42.79-.83,1.14-1.26.94-1.03,1.87-2.08,2.8-3.11.27-.31.55-.62.8-.91,1.18-1.34,2.37-2.7,3.54-4.04,1.32-1.54,2.64-3.08,3.94-4.65,1.32-1.55,2.62-3.13,3.91-4.72,1.28-1.54,2.56-3.13,3.81-4.73.02,0,.04-.03.06-.03,1.1-1.42,2.21-2.82,3.32-4.24.487-.63.955-1.269,1.439-1.9h0c.079-.1.154-.207.233-.31,3.391-4.434,6.7-8.908,9.887-13.42a1.132,1.132,0,0,0,.1-.13v-.01q1.44-2.025,2.82-4.05c2.8-4.07,5.5-8.16,8.14-12.27.02-.02.02-.02.02-.04v-.01c.12-.21.24-.44.35-.67.36-.71.72-1.43,1.09-2.14v-.01c.37-.72.74-1.43,1.11-2.15.34-.7.68-1.39,1.03-2.09.21-.41.42-.83.62-1.25.29-.55.57-1.11.84-1.67.56-1.12,1.12-2.26,1.68-3.4s1.11-2.3,1.66-3.44c.25-.49.5-.99.74-1.5.76-1.57,1.52-3.14,2.27-4.73l.06-.12c.04-.1.09-.2.14-.3.02-.04.04-.07.06-.11.2-.41.4-.84.6-1.27.45-.93.89-1.87,1.33-2.82s.89-1.88,1.33-2.83c.62-1.35,1.24-2.69,1.85-4.01.13-.29.29-.6.4-.89.4-.84.79-1.68,1.17-2.53s.77-1.69,1.15-2.54c.59-1.29,1.17-2.58,1.74-3.88l1.74-3.9c1.15-2.59,2.28-5.2,3.4-7.81q1.965-4.545,3.86-9.12c.624-1.5,1.245-3.022,1.869-4.53h0c.056-.138.112-.275.169-.413.7-1.688,1.4-3.366,2.091-5.067.18-.44.36-.89.53-1.34.32-.76.62-1.51.91-2.26.36-.9.73-1.8,1.08-2.69Z"/><polygon class="cls-4" points="1150.026 1259.37 1150.026 1349.664 1476.768 1349.664 1476.768 1354.664 1145.026 1354.664 1145.026 1259.37 947.771 1259.37 945.271 1259.37 722.177 1259.37 722.177 1254.37 942.771 1254.37 942.771 1223.7 947.771 1223.7 947.771 1254.37 1292.151 1254.37 1292.151 1223.7 1297.151 1223.7 1297.151 1259.37 1150.026 1259.37"/><path class="cls-4" d="M708.262,1591.844H487.669v5H910.517v55.14q2.5-.032,5-.065v-55.075h147.125v-108H1187.2v-5H980.031v-82.206h-5v82.206H670.107v5h38.155Zm5-103h344.38v103H713.262Z"/><path class="cls-4" d="M207.051,1374.593h5V1456.8h207.17v5H294.662v108H254.824q-4.019-2.49-7.848-5h42.686v-103H138.911c-.533-.739-1.065-1.479-1.588-2.219-.664-.926-1.318-1.853-1.971-2.781h71.7Z"/><path class="cls-4" d="M1671.543,1504.535q-4.725,2.542-9.356,5h-363.14v-5H1519.64v-103h-38.155v-5h304.924v-82.207h5v82.207h38.507l-.853.785c-.83.77-1.69,1.55-2.54,2.31-.706.647-1.417,1.272-2.124,1.9H1524.64v103Z"/><polygon class="cls-4" points="348.419 1278.776 125.326 1278.776 125.326 1273.776 345.919 1273.776 345.919 1223.7 350.919 1223.7 350.919 1273.776 695.299 1273.776 695.299 1223.7 700.299 1223.7 700.299 1278.776 553.174 1278.776 553.174 1369.07 879.917 1369.07 879.917 1374.07 548.174 1374.07 548.174 1278.776 350.919 1278.776 348.419 1278.776"/><path class="cls-10" d="M799.613,894.89c2.85.68,5.68,1.33,8.51,1.96l.47-1.96ZM42.383,1221.61c.13.69.26,1.39.39,2.09l.24,1.32c.13.67.26,1.34.38,2.01.09.48.19.96.28,1.44.15.8.31,1.6.47,2.41.07.36.14.72.21,1.07.23,1.17.46,2.34.7,3.52h1894.37c.75-1.82,1.5-3.63,2.24-5.46.19-.45.37-.91.55-1.36.32-.76.62-1.51.91-2.26.36-.9.73-1.8,1.08-2.69.09-.2.16-.4.24-.6.2-.5.39-1,.58-1.49h-284.57V902.98h314.52c-.13-.95-.27-1.9-.41-2.85s-.28-1.89-.42-2.84c-.12-.8-.25-1.6-.37-2.4h-313.32V573.38h198.98q-1.275-2.01-2.58-4.03c-.87-1.35-1.75-2.71-2.65-4.06h-193.75V383.74c-.66-.38-1.32-.76-1.99-1.14q-1.995-1.125-4.04-2.24c-.68-.37-1.37-.74-2.06-1.11V565.29h-345.39V386.95c-2.59.78-5.17,1.56-7.75,2.36q-3.03.945-6.12,1.97V565.29H905.843V433.91c-1.11-.49-2.22-.97-3.34-1.45h-.01c-1.48-.65-2.97-1.29-4.45-1.93-.1-.04-.19-.08-.28-.12V565.29H549.483V400.75l-1.7.33a.037.037,0,0,0-.03.01q-3.18.615-6.36,1.28V565.29h-294.8c-.67.68-1.35,1.35-2.02,2.03-1.33,1.35-2.66,2.7-3.97,4.04-.65.68-1.3,1.35-1.95,2.02h302.74V894.89H196V621.72q-1.98,2.46-3.9,4.87c-1.1,1.39-2.18,2.77-3.26,4.13-.58.75-1.17,1.5-1.75,2.25q-1.695,2.19-3.33,4.33c-.55.72-1.09,1.43-1.63,2.14V894.89H53.793c-.74,2.68-1.47,5.37-2.19,8.09h130.53v318.63Zm499.01-318.63v318.63H196V902.98Zm364.45,318.63V902.98H1293.1v318.63Zm-356.36,0V902.98h348.28v318.63Zm348.28-648.23V894.89H549.483V573.38Zm395.34,0V894.89H905.843V573.38Zm359.26,321.51h-345.39V573.38h345.39Zm0,326.72h-345.39V902.98h345.39Z"/></g><g id="Lamp"><path class="cls-11" d="M1795.617,1757.739h8.709V526.824A356.229,356.229,0,0,0,1448.1,170.6c-92.693,0-168.1,75.412-168.1,168.105h8.708c0-87.891,71.506-159.4,159.4-159.4,191.623,0,347.519,155.9,347.519,347.518Z"/><path class="cls-11" d="M1676.342,1736.881H1923.6a0,0,0,0,1,0,0v0a20.858,20.858,0,0,1-20.858,20.858H1697.2a20.858,20.858,0,0,1-20.858-20.858v0A0,0,0,0,1,1676.342,1736.881Z" transform="translate(3599.943 3494.621) rotate(-180)"/><path class="cls-12" d="M1246.4,428.909a37.944,37.944,0,1,1,37.944,37.945A37.987,37.987,0,0,1,1246.4,428.909Z"/><path class="cls-13" d="M1406.629,428.909a118.549,118.549,0,0,0-237.1,0Z"/><path class="cls-11" d="M1406.629,428.909A118.55,118.55,0,0,0,1288.08,310.36q-3.508,0-6.966.2c-76.068,4.407-71.915,118.347,4.281,118.347Z"/></g><g id="Table"><rect class="cls-14" x="323.671" y="1165.65" width="1371.45" height="598.45"/><path class="cls-15" d="M928.519,1182.2h766.6a0,0,0,0,1,0,0v581.9a0,0,0,0,1,0,0H346.622a0,0,0,0,1,0,0v0A581.9,581.9,0,0,1,928.519,1182.2Z"/><path class="cls-5" d="M361.561,1754.91a166.457,166.457,0,0,0,17.41,9.19h-9.18q-5.235-2.685-10.31-5.77a136.7,136.7,0,0,1-35.81-31.32v-6.57A131.722,131.722,0,0,0,361.561,1754.91Z"/><path class="cls-5" d="M925.821,1570.79c-86.22-3.08-173.5-11.92-257.89-20.46-35.07-3.55-71.34-7.22-107.03-10.43-84.02-7.55-169.25-7.09-223.4,46.97a125.685,125.685,0,0,0-13.83,16.33v-6.7a130.777,130.777,0,0,1,11-12.46c55.32-55.22,141.6-55.76,226.59-48.13,35.71,3.21,71.99,6.89,107.07,10.44,84.33,8.53,171.54,17.36,257.64,20.44,90.49,3.23,194.8.18,282.29-46.93,11.98-6.45,25.15-14.74,32.06-27.36,11.32-20.67,2.27-47.21-12.53-62.74-16.35-17.14-40.03-26.1-61.03-32.6-128.24-39.68-267.05-29.1-385.92-13.51-28.72,3.76-57.93,8.03-86.18,12.15-98.67,14.41-200.7,29.32-301.87,25.85q-35.415-1.215-69.12-5.62v-4.08q33.675,4.47,69.26,5.7c100.81,3.46,202.66-11.42,301.15-25.8,28.26-4.13,57.49-8.4,86.24-12.17,119.3-15.64,258.65-26.24,387.63,13.66,21.49,6.65,45.75,15.85,62.73,33.66,15.8,16.58,25.39,45.06,13.15,67.43-7.42,13.53-21.18,22.23-33.67,28.95C1121.821,1570.95,1016.851,1574.04,925.821,1570.79Z"/><path class="cls-5" d="M1624.721,1633.71c11.63,16.87,5.11,40.13-4.87,56.28-22.51,36.44-61.88,57.88-100.71,74.11h-10.57c41.05-16.45,84.22-37.92,107.88-76.21,9.31-15.08,15.51-36.63,4.98-51.91-3.74-5.43-9.35-9.55-14.34-12.87-42.93-28.5-102.1-38.19-166.63-27.28-49.14,8.3-96.62,26.82-142.54,44.73-7.58,2.95-15.16,5.91-22.74,8.82a2229.046,2229.046,0,0,1-414.91,114.72h-23.95a2225.184,2225.184,0,0,0,437.43-118.46c7.57-2.9,15.14-5.86,22.71-8.81,46.11-17.98,93.79-36.57,143.33-44.94,65.54-11.08,125.74-1.18,169.51,27.89C1614.611,1623.31,1620.591,1627.72,1624.721,1633.71Z"/><path class="cls-5" d="M1695.121,1230.24v4.03c-8.42.82-16.87,2.37-25.2,3.9l-.71.13a2184.068,2184.068,0,0,1-499.9,33.05c-81.39-4-163.82-12.7-243.54-21.11-102.81-10.85-209.13-22.07-314.17-23.3-96.11-1.12-192.38,6.05-287.93,17.26v-4.02c95.54-11.19,191.81-18.35,287.98-17.24,105.22,1.23,211.63,12.46,314.54,23.32,79.66,8.41,162.04,17.1,243.31,21.09a2178.836,2178.836,0,0,0,498.98-32.99l.72-.13C1677.751,1232.66,1686.431,1231.07,1695.121,1230.24Z"/><path class="cls-5" d="M1512.081,1338.01a1204.816,1204.816,0,0,0,183.04,14.88v4a1209.044,1209.044,0,0,1-183.67-14.93c-9.04-1.44-18.26-3.01-27.17-4.52-53.63-9.11-109.07-18.54-162.13-6.69-8.18,1.83-18.63,7.07-22.25,14.28a10.011,10.011,0,0,0-.27,8.95c1.91,4.3,6.59,6.92,11.35,9.12,41.73,19.22,90.39,20.7,133.33,22.02l250.81,7.67v4l-250.93-7.67c-43.32-1.33-92.42-2.83-134.88-22.39-5.48-2.52-10.88-5.62-13.34-11.12a14.071,14.071,0,0,1,.35-12.38c4.24-8.41,15.59-14.29,24.96-16.38,53.82-12.02,109.66-2.53,163.67,6.64C1493.851,1335.01,1503.061,1336.57,1512.081,1338.01Z"/><path class="cls-16" d="M1757.461,1126.17a39.485,39.485,0,0,1-39.48,39.48H300.811a39.48,39.48,0,0,1,0-78.96h1417.17A39.479,39.479,0,0,1,1757.461,1126.17Z"/><path class="cls-17" d="M1757.461,1126.17a39.355,39.355,0,0,1-1.08,9.21H443.651a39.515,39.515,0,0,1-38.4-48.69h1312.73A39.479,39.479,0,0,1,1757.461,1126.17Z"/></g><g id="_404" data-name="404"><path class="cls-16" d="M816.305,1326.476V1495.99q0,7.606,2.085,10.426t7.728,2.821h10.3q11.529-.242,12.021,13.983v49.8q0,13.005-13.247,14.719-8.591.983-10.794,3.188t-2.208,10.549v28.948q.977,15.455-14.228,16.191h-83.9q-8.832,0-11.53-3.067t-2.7-13.124v-25.268q0-10.3-3.925-14.351t-13.738-4.047H596.5q-17.173,0-24.163-7.238t-6.992-24.9q0-23.55,5.642-36.8,6.865-16.433,39.5-55.441l62.31-74.822q46.853-56.173,69.179-71.633a90.092,90.092,0,0,1,24.41-11.284,91.594,91.594,0,0,1,26.861-4.416q12.266,0,17.663,6.133T816.305,1326.476ZM713.272,1453.8v-12.021q0-22.079-12.265-22.078-9.327,0-17.418,10.058l-37.779,46.364q-16.438,20.366-16.436,29.193,0,6.383,6.869,8.218t34.1,2.576l19.38.245q12.512,0,16.927-2.821t5.151-11.162Q713.272,1488.88,713.272,1453.8Z"/><path class="cls-16" d="M1006.672,1317.154q33.606,0,64.763,16.436,42.19,22.079,63.047,65.745a153.817,153.817,0,0,1,15.455,67.953q0,65.746-50.29,107.694-38.517,31.893-87.824,31.891-54.461,0-92.73-35.571-45.387-41.949-45.383-112.109,0-68.443,41.458-107.449Q951.719,1317.154,1006.672,1317.154Zm-5.643,73.105q-22.813,0-22.814,38.759,0,50.781,19.379,91.259,7.6,15.7,20.362,15.7,22.321,0,22.324-39.5a253.441,253.441,0,0,0-4.783-47.224q-4.785-25.143-12.144-40.845Q1015.258,1391,1001.029,1390.259Z"/><path class="cls-16" d="M1414.879,1326.476V1495.99q0,7.606,2.085,10.426t7.727,2.821H1435q11.526-.242,12.02,13.983v49.8q0,13.005-13.247,14.719-8.589.983-10.794,3.188t-2.208,10.549v28.948q.978,15.455-14.228,16.191h-83.9q-8.83,0-11.53-3.067t-2.7-13.124v-25.268q0-10.3-3.925-14.351t-13.738-4.047h-95.673q-17.175,0-24.164-7.238t-6.991-24.9q0-23.55,5.641-36.8,6.866-16.433,39.5-55.441l62.311-74.822q46.854-56.173,69.18-71.633a90.085,90.085,0,0,1,24.409-11.284,91.6,91.6,0,0,1,26.862-4.416q12.264,0,17.662,6.133T1414.879,1326.476ZM1311.845,1453.8v-12.021q0-22.079-12.265-22.078-9.327,0-17.418,10.058l-37.778,46.364q-16.439,20.366-16.437,29.193,0,6.383,6.869,8.218t34.1,2.576l19.38.245q12.51,0,16.927-2.821t5.152-11.162Q1311.846,1488.88,1311.845,1453.8Z"/><path class="cls-7" d="M816.305,1308.476V1477.99q0,7.606,2.085,10.426t7.728,2.821h10.3q11.529-.242,12.021,13.983v49.8q0,13.005-13.247,14.719-8.591.983-10.794,3.188t-2.208,10.549v28.948q.977,15.455-14.228,16.191h-83.9q-8.832,0-11.53-3.067t-2.7-13.124v-25.268q0-10.3-3.925-14.351t-13.738-4.047H596.5q-17.173,0-24.163-7.238t-6.992-24.9q0-23.55,5.642-36.8,6.865-16.433,39.5-55.441l62.31-74.822q46.853-56.173,69.179-71.633a90.092,90.092,0,0,1,24.41-11.284,91.594,91.594,0,0,1,26.861-4.416q12.266,0,17.663,6.133T816.305,1308.476ZM713.272,1435.8v-12.021q0-22.079-12.265-22.078-9.327,0-17.418,10.058l-37.779,46.364q-16.438,20.366-16.436,29.193,0,6.383,6.869,8.218t34.1,2.576l19.38.245q12.512,0,16.927-2.821t5.151-11.162Q713.272,1470.88,713.272,1435.8Z"/><path class="cls-7" d="M1006.672,1299.154q33.606,0,64.763,16.436,42.19,22.079,63.047,65.745a153.817,153.817,0,0,1,15.455,67.953q0,65.746-50.29,107.694-38.517,31.893-87.824,31.891-54.461,0-92.73-35.571-45.387-41.949-45.383-112.109,0-68.443,41.458-107.449Q951.719,1299.154,1006.672,1299.154Zm-5.643,73.105q-22.813,0-22.814,38.759,0,50.781,19.379,91.259,7.6,15.7,20.362,15.7,22.321,0,22.324-39.5a253.441,253.441,0,0,0-4.783-47.224q-4.785-25.143-12.144-40.845Q1015.258,1373,1001.029,1372.259Z"/><path class="cls-7" d="M1414.879,1308.476V1477.99q0,7.606,2.085,10.426t7.727,2.821H1435q11.526-.242,12.02,13.983v49.8q0,13.005-13.247,14.719-8.589.983-10.794,3.188t-2.208,10.549v28.948q.978,15.455-14.228,16.191h-83.9q-8.83,0-11.53-3.067t-2.7-13.124v-25.268q0-10.3-3.925-14.351t-13.738-4.047h-95.673q-17.175,0-24.164-7.238t-6.991-24.9q0-23.55,5.641-36.8,6.866-16.433,39.5-55.441l62.311-74.822q46.854-56.173,69.18-71.633a90.085,90.085,0,0,1,24.409-11.284,91.6,91.6,0,0,1,26.862-4.416q12.264,0,17.662,6.133T1414.879,1308.476ZM1311.845,1435.8v-12.021q0-22.079-12.265-22.078-9.327,0-17.418,10.058l-37.778,46.364q-16.439,20.366-16.437,29.193,0,6.383,6.869,8.218t34.1,2.576l19.38.245q12.51,0,16.927-2.821t5.152-11.162Q1311.846,1470.88,1311.845,1435.8Z"/></g><g id="Plant"><path class="cls-18" d="M423.676,1056.137c-1.065-6.593,7.6-14.252,20.653-19.462a375.84,375.84,0,0,0-26.03-57.039c-22.423,9.686-40.524,13.633-42.535,8.707-1.927-4.717,11.538-16.045,31.6-27.382-10.845-17.576-20.806-31.223-26.7-38.915a9.519,9.519,0,0,0-13.059-2.255,483.994,483.994,0,0,0-54.778,41.645c.88.468,1.757.914,2.637,1.449,17.284,10.512,27.78,25.249,23.446,32.916s-21.861,5.361-39.144-5.15a79.8,79.8,0,0,1-10.045-7.277c-6.04,6.208-11.991,12.753-17.7,19.6,10.677,8.933,16.71,16.573,14.808,19.936-2.03,3.591-12.559,1.393-26.625-4.788-21.564,29.687-37.148,64.021-36.008,100.569,22.915-1.365,40.739,4.456,41.909,14.817,1.1,9.745-12.839,20.448-33.118,26.777,5.825,14.613,14.712,29.42,27.341,44.284,32.057,37.731,83.053,46.536,125.906,21.74a175.024,175.024,0,0,0,26.534-18.694c-21.725-19.356-36.1-38.642-32.263-43.479,3.924-4.944,25.376,7.084,47.913,26.867.153.134.289.267.437.4,31.344-37.387,33.781-82.924,23.824-126.171C437.093,1066.772,424.834,1063.305,423.676,1056.137Z"/><path class="cls-18" d="M519.071,1410.551c5.206-1.794,14.385,4.129,23.13,14.209a239.59,239.59,0,0,0,39-29.321c-16-15.752-25.248-28.413-22-30.507,3.1-2,16.75,6.127,33.318,19.465a244.951,244.951,0,0,0,21.132-24.889c2.065-2.82.677-6.736-3.289-9.408a566.925,566.925,0,0,0-50.643-30.3c-.074.6-.134,1.2-.259,1.811-2.5,12.253-10.462,21-17.631,19.127-7.105-1.854-10.37-13.352-7.449-25.3a35.208,35.208,0,0,1,2.5-6.888c-6.137-2.8-12.418-5.467-18.782-7.931-3.673,7.255-7.661,11.739-10.568,11.019-3.091-.765-4.067-7.179-3.059-15.918-25.483-8.421-52-12.832-76.672-8.071,4.627,12.364,3.5,23.188-3.658,25.1-6.746,1.8-16.355-4.978-23.523-15.581a113.945,113.945,0,0,0-27.569,20.643c-23.967,23.97-26.055,58.928-1.971,87.044a140.224,140.224,0,0,0,18.9,18.341c12.588-19.859,25.747-33.335,30.28-31.133,4.674,2.27-1.243,20.5-13.843,41.688-.087.147-.177.281-.265.424,38.442,21.763,79.152,17.124,114.078,1.913C514.113,1423.075,513.393,1412.507,519.071,1410.551Z"/><path class="cls-18" d="M237.493,1289.419c-2.7-1.777-2.793-6.276-.75-10.865a257.771,257.771,0,0,0-28.669-11.712c-5.021,8.141-11.017,14.034-13.859,12.866-2.746-1.128-1.274-8.344,2.8-16.492-11.147-3.463-20.911-5.96-26.751-7.364-3.246-.781-6.4,0-7.559,1.932a164.575,164.575,0,0,0-13.98,30.507c.791-.1,1.567-.215,2.383-.291,15.226-1.412,27.414.933,28.486,5.214,1.1,4.385-9.7,9.74-25.481,12.063a98.733,98.733,0,0,1-10.53.949,165.665,165.665,0,0,0-2.985,16.915c12.529-1.091,20.557-.529,21,1.865.478,2.589-7.992,6.911-22.053,11.591-.945,28.734,6.485,59.857,30.793,79.416,16.061-20.834,30.632-31.47,37.025-27.306,5.975,3.891,4.212,20.158-4.436,41.884,12.619,2.227,26.465,1.558,41.217-2.4,32.338-8.669,49.711-39.218,48.2-70.175a118.7,118.7,0,0,0-2.034-17.2c-11.948,2.165-23.169,1.452-24.1-1.818s8.994-7.409,21-9.117c.077-.011.151-.016.227-.026-6.992-20.931-21.725-34.693-38.65-44.805C245.141,1289.27,240.416,1291.344,237.493,1289.419Z"/><path class="cls-19" d="M126.551,1308.476c-5.273,1.588-9.257,11.76-10.459,25.051a239.607,239.607,0,0,1-48.786-.985c3.77-22.132,3.873-37.812.012-37.611-3.681.192-10.007,14.764-15.651,35.271a244.779,244.779,0,0,1-31.695-7.838c-3.324-1.081-4.488-5.069-2.832-9.555a566.739,566.739,0,0,1,23.372-54.19c.412.444.81.894,1.269,1.318,9.2,8.478,20.763,10.918,25.486,5.21,4.681-5.658.607-16.894-8.745-24.876a35.094,35.094,0,0,0-6.051-4.13c3.344-5.856,6.879-11.7,10.6-17.415,7.222,3.738,13.079,5.045,15.016,2.761,2.06-2.428-.9-8.2-6.825-14.7,15.751-21.73,34.69-40.815,57.485-51.373,3.475,12.736,10.721,20.856,17.642,18.223,6.526-2.482,10.357-13.6,9.974-26.393a113.952,113.952,0,0,1,34.436.63c33.457,5.434,55.59,32.575,52.487,69.465a140.212,140.212,0,0,1-4.608,25.929c-21.822-8.752-40.376-11.992-42.767-7.556-2.464,4.575,12.992,15.9,35.6,25.728.157.069.308.125.463.189-18.464,40.131-54.205,60.168-91.432,68.247C137.9,1315.738,132.3,1306.744,126.551,1308.476Z"/><path class="cls-19" d="M549.846,1150c1.717-6.275,13.5-10.737,28.639-11.753a292.735,292.735,0,0,0-2.548-57.1c-25.519,2.48-44.424,1.178-44.3-3.513.116-4.471,17.506-10.6,41.183-15.075a327.068,327.068,0,0,0-9.953-38.477c-1.355-4.118-6.045-6.134-11.278-4.863a618.961,618.961,0,0,0-67.259,20.643c.606.587,1.218,1.158,1.8,1.8,11.464,12.762,15.026,27.574,7.756,32.9-7.3,5.345-22.541-1.016-33.851-14.02a54.075,54.075,0,0,1-5.982-8.408c-8.14,3.6-16.358,7.509-24.507,11.733,5.707,10.025,7.816,17.914,4.592,20.251-3.448,2.5-12.032-2.016-21.945-10.682-32.833,19.3-62.905,44.337-79.6,76.361,21.443,5.176,34.971,15.4,31.016,25.079-3.751,9.178-21.955,14.866-43.765,14.689-2.077,15.145-1.444,31.637,2.677,49.64,10.825,47.283,56.253,73.749,111.936,63.283a222.856,222.856,0,0,0,36.229-9.928c-12.845-26.916-18.06-50.637-11.95-54.113,6.236-3.548,22.164,15.19,35.95,42.571.1.188.174.369.264.556,49.6-27.093,72.019-70.958,80.132-114.818C558.742,1163.6,547.966,1156.863,549.846,1150Z"/><path class="cls-20" d="M514.317,1363.52c-1.748-1.463-43.6-35.638-93.181-20.155-28.811,8.98-53.641,32.631-74.2,70.626C371.8,1308.7,420.445,1151.478,496.68,1103a6.093,6.093,0,1,0-6.543-10.281c-84.971,54.006-135.6,229.151-159.255,335.334-2.235,10.119-4.267,19.628-6.014,28.324.162-8.94.447-18.449.853-28.364,5.4-144.87,29.787-382.554,30.072-385.643a6.088,6.088,0,1,0-12.11-1.26c-1.26,12.151-23.407,228.257-29.624,372.111-25.48-161.978-57.826-243.129-98.219-247.275-45.636-4.591-79,90.214-82.656,101.064a6.111,6.111,0,0,0,11.582,3.9c8.818-26.292,37.873-92.936,67.782-92.936a16.593,16.593,0,0,1,2.032.122c20.44,2.113,57.379,39.255,89.482,250.282,1.381,9.265,2.8,18.855,4.185,28.811-4.673-9.59-9.793-19.018-15.2-28.161-36-61.28-83.752-110.532-86.556-113.377a6.078,6.078,0,1,0-8.7,8.494c.651.69,46.245,47.707,81.681,106.183a377.852,377.852,0,0,1,25.37,48.975h28.21c1.98-5.741,13.238-36.872,19.728-50.113,19.872-40.514,43.888-65.384,71.887-74.162,43.156-13.532,81.476,17.555,81.842,17.881a6.1,6.1,0,0,0,7.8-9.388Z"/><path class="cls-21" d="M234.8,1520.833v201.724a41.544,41.544,0,0,0,41.543,41.543h83.087a41.572,41.572,0,0,0,41.543-41.543V1520.833a41.539,41.539,0,0,0-41.543-41.523H276.345A41.539,41.539,0,0,0,234.8,1520.833Z"/><path class="cls-12" d="M270.936,1507.924v201.7a41.544,41.544,0,0,0,41.543,41.544h77.054a41.335,41.335,0,0,0,11.442-28.614V1520.833a41.539,41.539,0,0,0-41.543-41.523H282.378A41.335,41.335,0,0,0,270.936,1507.924Z"/><path class="cls-20" d="M251.8,1482.474H383.976a3.172,3.172,0,1,0,0-6.344H251.8a3.172,3.172,0,0,0,0,6.344Z"/><rect class="cls-20" x="234.812" y="1567.478" width="166.171" height="108.454"/><rect class="cls-22" x="234.811" y="1574.534" width="166.171" height="94.343"/><rect class="cls-23" x="234.811" y="1574.534" width="166.171" height="94.343"/><rect class="cls-24" x="269.988" y="1574.534" width="130.994" height="94.343"/><path class="cls-20" d="M234.836,1622.351V1634.6a74.1,74.1,0,0,0,6.72-11.476c3.929-7.806,7.651-15.147,14.216-15.147,4.29,0,7.393,3.154,10.081,7.5v-9.925a14.832,14.832,0,0,0-10.081-3.929c-10.494,0-15.508,9.925-19.9,18.662C235.507,1620.956,235.146,1621.679,234.836,1622.351Z"/><path class="cls-20" d="M265.853,1605.551v9.925a80.866,80.866,0,0,1,4.135,7.651c4.394,8.736,9.408,18.661,19.9,18.661,10.443,0,15.457-9.925,19.851-18.661,3.929-7.806,7.651-15.147,14.216-15.147,6.618,0,10.288,7.341,14.217,15.147,4.445,8.736,9.408,18.661,19.9,18.661s15.457-9.925,19.9-18.661c3.929-7.806,7.651-15.147,14.216-15.147,3.619,0,6.358,2.223,8.788,5.532v-8.995a14.451,14.451,0,0,0-8.788-2.895c-10.494,0-15.457,9.925-19.9,18.662-3.928,7.806-7.651,15.146-14.216,15.146s-10.287-7.34-14.216-15.146c-4.393-8.737-9.407-18.662-19.9-18.662-10.442,0-15.456,9.925-19.851,18.662-3.929,7.806-7.65,15.146-14.216,15.146-6.617,0-10.287-7.34-14.267-15.146C272.934,1614.959,270.091,1609.221,265.853,1605.551Z"/></g><g id="Human"><path class="cls-25" d="M1018.387,949.859c-1.152-.216-2.3-.456-3.407-.744A49.237,49.237,0,0,1,983.955,925.7a50.168,50.168,0,0,1-6.574-29.177l4.8-60.417h87.483l.792,6.886,6.022,51.563C1080.364,927.736,1051.211,956.1,1018.387,949.859Z"/><path class="cls-26" d="M1070.455,842.989v.024S1035.087,897,989.33,861.536c0,0-7.15,27.57-5.375,64.161a50.168,50.168,0,0,1-6.574-29.177l4.8-60.417h87.483Z"/><path class="cls-25" d="M949.318,737.909C954.043,784.32,970.076,855.1,1023.7,863.68a34.566,34.566,0,0,0,13.579-.562c18.8-4.562,64.17-26.329,68.94-130.2a88.949,88.949,0,0,0-40.134-78.85c-19.968-13.025-46.246-19.341-76.224-.016A88.905,88.905,0,0,0,949.318,737.909Z"/><path class="cls-27" d="M974.283,768.659a3.4,3.4,0,0,1,1.139-.582,2.847,2.847,0,0,1,1.333.021,8.018,8.018,0,0,0,2.325.483,4.181,4.181,0,0,0,1.088-.165c.174-.062.368-.117.522-.182a2.306,2.306,0,0,0,.389-.243,14.352,14.352,0,0,0,1.59-1.714,7.43,7.43,0,0,1,2.083-1.83,3.445,3.445,0,0,1,1.6-.436,4.2,4.2,0,0,1,1.569.35,20.822,20.822,0,0,1,2.274,1.268,4.85,4.85,0,0,0,1.888.749,4.088,4.088,0,0,0,1.879-.524,17.088,17.088,0,0,1,2.429-1.007,4.474,4.474,0,0,1,1.548-.177,3.161,3.161,0,0,1,1.609.582,7.615,7.615,0,0,1,1.788,2.119,11.784,11.784,0,0,0,1.385,1.871,2.564,2.564,0,0,0,.808.564,4.141,4.141,0,0,0,1.074.212c.785.079,1.632.042,2.483.117a3.99,3.99,0,0,1,2.386.847,4.137,4.137,0,0,0-2.383-.292c-.811.088-1.619.243-2.5.31a4.926,4.926,0,0,1-1.392-.094,3.728,3.728,0,0,1-1.334-.671,11.227,11.227,0,0,1-1.8-1.953,7.679,7.679,0,0,0-1.511-1.585,1.8,1.8,0,0,0-1.625-.035,19.245,19.245,0,0,0-2.144.963,5.764,5.764,0,0,1-2.881.745,6.644,6.644,0,0,1-2.711-1.063c-.737-.455-1.418-.911-2.042-1.22a1.623,1.623,0,0,0-1.618-.078,7.064,7.064,0,0,0-1.736,1.334,12.558,12.558,0,0,1-2,1.733,3.406,3.406,0,0,1-.722.317c-.239.064-.453.1-.68.142a4.931,4.931,0,0,1-1.389.02,7.953,7.953,0,0,1-2.43-.933A2.643,2.643,0,0,0,974.283,768.659Z"/><path class="cls-27" d="M1080.4,770.984a3.681,3.681,0,0,1-1.854-1.731,4.28,4.28,0,0,0-1.31-1.841,3.622,3.622,0,0,0-.977-.456,3.245,3.245,0,0,0-.515-.129,1.459,1.459,0,0,0-.434.012,9.713,9.713,0,0,0-2.135.784,9.562,9.562,0,0,1-2.558.847,4.157,4.157,0,0,1-1.592-.071,5.66,5.66,0,0,1-1.362-.625c-.783-.479-1.415-1.014-2.055-1.426a3.155,3.155,0,0,0-1.717-.655,2.955,2.955,0,0,0-1.558.863c-.589.5-1.182,1.111-1.922,1.663a6.192,6.192,0,0,1-1.281.734,3.74,3.74,0,0,1-1.6.254,11.28,11.28,0,0,1-2.6-.592,7.061,7.061,0,0,0-2.184-.4,1.877,1.877,0,0,0-.879.249,2.8,2.8,0,0,0-.731.744c-.465.612-.831,1.372-1.277,2.087a5.175,5.175,0,0,1-1.7,1.865c1.173-1.228,1.331-2.9,2.144-4.47a3.739,3.739,0,0,1,.87-1.139,3.077,3.077,0,0,1,1.41-.637,7.616,7.616,0,0,1,2.725.185,13.87,13.87,0,0,0,2.275.356,1.9,1.9,0,0,0,.829-.182,4.463,4.463,0,0,0,.836-.555c.568-.469,1.137-1.045,1.795-1.637a7.533,7.533,0,0,1,1.135-.859,3.517,3.517,0,0,1,1.631-.527,4.991,4.991,0,0,1,2.874,1.027c.738.51,1.383,1.04,1.992,1.462a4.023,4.023,0,0,0,.86.47,2.4,2.4,0,0,0,.873.078,10.258,10.258,0,0,0,2.2-.559,9.342,9.342,0,0,1,2.61-.636,2.67,2.67,0,0,1,.8.1,4.543,4.543,0,0,1,.663.26,4.431,4.431,0,0,1,1.175.764,4.786,4.786,0,0,1,1.194,2.377A3.741,3.741,0,0,0,1080.4,770.984Z"/><path class="cls-26" d="M1031.517,803.266a9.975,9.975,0,0,1-2.967-.5,1.875,1.875,0,0,1,1.119-3.579c2.466.774,3.192-.013,3.431-.271,3.779-4.074-1.967-24.64-7.253-37.942a1.874,1.874,0,1,1,3.483-1.386c2.273,5.717,13.268,34.6,6.519,41.877A5.675,5.675,0,0,1,1031.517,803.266Z"/><ellipse class="cls-28" cx="986.896" cy="798.225" rx="9.16" ry="16.456" transform="translate(124.838 1729.881) rotate(-86.189)"/><path class="cls-29" d="M973.492,743.818a46.344,46.344,0,0,1,8.731-3.286,42.346,42.346,0,0,1,9.448-1.452,30.307,30.307,0,0,1,9.816,1.363,26.034,26.034,0,0,1,8.588,4.835,2.494,2.494,0,0,1,.237,3.8,3.293,3.293,0,0,1-4.273.211c-.038-.03-.075-.061-.111-.092l-.212-.189a19.742,19.742,0,0,0-6.253-4.072,24.351,24.351,0,0,0-7.8-1.555,37.531,37.531,0,0,0-8.352.783,43.267,43.267,0,0,0-8.059,2.465l-.092.039a1.914,1.914,0,0,1-2.413-.756A1.53,1.53,0,0,1,973.492,743.818Z"/><ellipse class="cls-28" cx="1066.763" cy="798.225" rx="16.456" ry="9.16" transform="translate(-50.698 72.672) rotate(-3.811)"/><path class="cls-29" d="M1080.167,743.818a46.353,46.353,0,0,0-8.732-3.286,42.328,42.328,0,0,0-9.447-1.452,30.3,30.3,0,0,0-9.816,1.363,26.034,26.034,0,0,0-8.588,4.835,2.494,2.494,0,0,0-.237,3.8,3.293,3.293,0,0,0,4.273.211c.038-.03.075-.061.111-.092l.211-.189a19.757,19.757,0,0,1,6.254-4.072,24.351,24.351,0,0,1,7.8-1.555,37.531,37.531,0,0,1,8.352.783,43.267,43.267,0,0,1,8.059,2.465l.092.039a1.914,1.914,0,0,0,2.413-.756A1.53,1.53,0,0,0,1080.167,743.818Z"/><path class="cls-25" d="M1101.757,739.175h0a20.933,20.933,0,0,1,20.431,25.489l-3.721,16.684a20.933,20.933,0,0,1-20.431,16.376h-5.353S1083.45,756.761,1101.757,739.175Z"/><path class="cls-25" d="M952.288,739.175h0a20.932,20.932,0,0,0-20.431,25.489l3.721,16.684a20.932,20.932,0,0,0,20.43,16.376h5.354S970.594,756.761,952.288,739.175Z"/><path class="cls-29" d="M1105.86,739.59l-6.1,33.884s-11.189-26.6-11.189-56.667c0,0-220.594,37.441-174.306-75,8.529-20.729,20.266-33.161,33.8-39.7,59.789-28.883,153.867,58.372,153.867,58.372S1130.319,650.167,1105.86,739.59Z"/><path class="cls-29" d="M945.977,713.936l8.883,59.547s11.461-28.536,10.69-57.072S945.977,713.936,945.977,713.936Z"/><path class="cls-26" d="M1108.065,784.708l-3.077-2.141c8.973-12.892,9.1-19.647,7.633-23.045-1.726-3.985-6.169-4.679-6.357-4.707l.516-3.713c.27.036,6.665.972,9.258,6.878C1118.767,764.2,1116.084,773.188,1108.065,784.708Z"/><path class="cls-26" d="M945.979,784.708c-8.019-11.52-10.7-20.513-7.973-26.728,2.593-5.906,8.988-6.842,9.259-6.878l.515,3.713c-.188.028-4.631.722-6.356,4.707-1.471,3.4-1.341,10.153,7.632,23.045Z"/><path class="cls-5" d="M1010.918,819.458a3.364,3.364,0,0,0-3.626,4.649,21.941,21.941,0,0,0,18.544,13.6,21.7,21.7,0,0,0,17.813-7.77,3.337,3.337,0,0,0-2.076-5.392Z"/><path class="cls-30" d="M1088.57,716.807s-220.594,37.441-174.306-75c8.529-20.729,20.266-33.161,33.8-39.7-17.838,29.027-43.858,87.6,30.3,95.928C1077.469,709.2,1088.57,716.807,1088.57,716.807Z"/><path class="cls-25" d="M1048.637,578.33c11.483,3.759,27.738,11.688,46.472,28.483a1.706,1.706,0,0,0,2.468-2.339,192.079,192.079,0,0,0-18.821-24.427c-2.789-3.038.331-7.716,3.877-5.769,10.006,5.492,23.1,14.939,36.533,30.988a1.681,1.681,0,0,0,2.931-1.582,79.922,79.922,0,0,0-6.966-16.316c-1.957-3.483,1.724-7.105,4.843-4.761,12.588,9.512,31.946,26.1,56.564,53.311l.022.052c12.367,13.671,26.063,30.013,40.9,49.508,3.318,4.353,6.667,8.848,10.094,13.525a263.071,263.071,0,0,0-56.875,52.085,205.7,205.7,0,0,0-16.428-14.63c-20.315-16.31-52-36.181-99.122-52.809-3.2-1.137-3.534-5.8-.462-6.98,10.285-3.956,28.4-9.565,48.32-9.78a1.892,1.892,0,0,0,.935-3.414c-12.139-10.257-48.979-40.756-76.326-57.475-3.411-2.1-1.833-7.539,1.987-6.817,11.157,2.05,27.874,7.658,49.205,22.151,1.754,1.2,3.545-1.132,2.065-2.753-9.194-10-22.735-24.031-35.042-33.816C1042.659,582.218,1044.89,577.115,1048.637,578.33Z"/><path class="cls-31" d="M1371.457,1042.271l-172.746,40.621,5.377-44.177,14.89-122.671,29.258.144-114.952-187.2,74.679-60.569,202.032,267C1439.543,974.5,1419.161,1031.082,1371.457,1042.271Z"/><path class="cls-32" d="M1371.457,1042.271l-172.746,40.621,5.377-44.177c87.747-25.413,54.9-101.768,53.978-103.85,139.266,163.494,151.929.549,151.929.549C1439.543,974.5,1419.161,1031.082,1371.457,1042.271Z"/><path class="cls-33" d="M1248.235,916.189c5.145,7.187,9.754,14.655,14.24,22.188q6.681,11.325,12.788,22.953,6.123,11.619,11.689,23.531c3.673,7.961,7.217,15.99,10.223,24.3-5.15-7.183-9.763-14.65-14.246-22.184q-6.681-11.327-12.781-22.957t-11.682-23.534C1254.8,932.525,1251.248,924.5,1248.235,916.189Z"/><path class="cls-34" d="M1227.218,807.163,1213.2,998.875l-4.916,66.959a23.044,23.044,0,0,1-22.984,21.394h-340a23.092,23.092,0,0,1-23.013-21.394L803.348,807.163a23.1,23.1,0,0,1,23.013-24.748H1204.2A23.067,23.067,0,0,1,1227.218,807.163Z"/><path class="cls-35" d="M1227.218,807.163,1213.2,998.875C878.431,1095.063,850.474,869.207,851.6,782.415h352.6A23.067,23.067,0,0,1,1227.218,807.163Z"/><circle class="cls-5" cx="1015.289" cy="934.82" r="45.226"/><path class="cls-36" d="M912.2,1636.276l-140.089,69.779c-7.332,3.652-16.388-.113-20.227-8.409l-97.316-210.308c-3.839-8.3-1.007-17.982,6.325-21.635l140.089-69.778c7.333-3.652,16.389.113,20.228,8.409l97.316,210.307C922.362,1622.938,919.53,1632.624,912.2,1636.276Z"/><path class="cls-37" d="M919.326,1632.728,794.308,1695l-15.078,7.511c-7.341,3.644-16.392-.109-20.223-8.415L661.68,1483.787c-3.827-8.289-1-17.97,6.331-21.631l140.1-69.786c7.327-3.638,16.377.115,20.224,8.416l90.225,194.994,7.087,15.323C929.483,1619.387,926.647,1629.072,919.326,1632.728Z"/><path class="cls-36" d="M919.326,1632.728,794.308,1695c-53.1-45.957-103.925-184.023-103.925-184.023l174.637,75.835,53.535,8.965,7.087,15.323C929.483,1619.387,926.647,1629.072,919.326,1632.728Z"/><path class="cls-5" d="M673.061,1476.036,809.406,1409.3s76.188,176.332,144.318,185.129L812.684,1686S774.371,1685.01,673.061,1476.036Z"/><path class="cls-38" d="M777.921,1432.056l-61.193,30.48c-4.341,2.162-9.7-.066-11.974-4.977l-6.152-13.3c-2.273-4.911-.6-10.644,3.744-12.806l61.194-30.481c4.34-2.162,9.7.067,11.973,4.978l6.153,13.3C783.938,1424.16,782.262,1429.894,777.921,1432.056Z"/><path class="cls-39" d="M699.547,1494.379a2.489,2.489,0,0,1-2.962-1.451,2.63,2.63,0,0,1,.991-3.492l107.662-54.846a2.441,2.441,0,0,1,3.264,1.326,2.631,2.631,0,0,1-.991,3.492l-107.663,54.845A2,2,0,0,1,699.547,1494.379Z"/><path class="cls-39" d="M724.362,1498.994a2.488,2.488,0,0,1-2.961-1.451,2.63,2.63,0,0,1,.99-3.492l75.62-38.523a2.44,2.44,0,0,1,3.264,1.326,2.63,2.63,0,0,1-.991,3.491l-75.62,38.523A2.122,2.122,0,0,1,724.362,1498.994Z"/><path class="cls-39" d="M714.063,1521.986a2.488,2.488,0,0,1-2.961-1.451,2.63,2.63,0,0,1,.99-3.492L819.755,1462.2a2.442,2.442,0,0,1,3.263,1.325,2.63,2.63,0,0,1-.99,3.492L714.365,1521.86A2.122,2.122,0,0,1,714.063,1521.986Z"/><path class="cls-39" d="M800.3,1612.907a2.489,2.489,0,0,1-3.071-1.2,2.63,2.63,0,0,1,.7-3.561l72.191-44.62a2.439,2.439,0,0,1,3.361,1.052,2.631,2.631,0,0,1-.7,3.562l-72.191,44.619A2.053,2.053,0,0,1,800.3,1612.907Z"/><path class="cls-39" d="M791.932,1636.669a2.489,2.489,0,0,1-3.071-1.2,2.631,2.631,0,0,1,.7-3.562l102.781-63.526a2.441,2.441,0,0,1,3.361,1.052,2.629,2.629,0,0,1-.7,3.561l-102.78,63.527A2.217,2.217,0,0,1,791.932,1636.669Z"/><path class="cls-40" d="M732.535,1551.186c5.446,9.544,14.3,24.467,20.9,32.732,2.586,3.236,6.728,4.278,10.047,2.5l36.353-19.511c4.484-2.407,5.6-8.832,2.309-13.39-6.081-8.432-15.066-20.988-20.124-28.512-2.391-3.556-6.62-4.933-10.124-3.3l-36.109,16.8C731.38,1540.554,729.852,1546.486,732.535,1551.186Z"/><path class="cls-41" d="M791.5,1520.442c5.447,9.544,14.3,24.468,20.9,32.732,2.586,3.237,6.728,4.278,10.046,2.5l36.354-19.511c4.484-2.407,5.6-8.833,2.309-13.39-6.081-8.432-15.067-20.988-20.125-28.512-2.39-3.556-6.619-4.934-10.123-3.3l-36.109,16.8C790.35,1509.811,788.822,1515.742,791.5,1520.442Z"/><path class="cls-39" d="M808.857,1663.579a2.458,2.458,0,0,1-2.854-1.243,2.689,2.689,0,0,1,.7-3.6l106.5-68.111a2.392,2.392,0,0,1,3.337,1.013,2.69,2.69,0,0,1-.7,3.6l-106.5,68.11A2.14,2.14,0,0,1,808.857,1663.579Z"/><path class="cls-25" d="M793.274,1383.662s21.031,64.931,17.96,125.27a2.734,2.734,0,0,1-5.048,1.289L783.2,1473.437l-60.078-4.206a17.428,17.428,0,0,1-15.84-13.806l-10.562-50.342Z"/><path class="cls-31" d="M748.474,1127.1l45.651,261.215-99.079,22.319L591.2,1090.264a53.061,53.061,0,0,1,17.723-58.141l137.039-107.55a104.31,104.31,0,0,1,64.357-22.233l1.446,17.722s.029.261.058.752l.115,1.3c0,.289.029.607.058.983l12.2,150.339-79.651,31.138Z"/><path class="cls-32" d="M744.542,1104.575l3.932,22.522-9.05-48.195c77.686-22.811,73.869-135.8,72.568-155.8l12.2,150.339Z"/><path class="cls-33" d="M744.554,1104.571a57.93,57.93,0,0,1-4.39-10.4,97.43,97.43,0,0,1-2.781-10.719,95.664,95.664,0,0,1-1.563-10.963,57.2,57.2,0,0,1,.061-11.287,57.173,57.173,0,0,1,4.4,10.4,95.668,95.668,0,0,1,2.774,10.721,97.5,97.5,0,0,1,1.555,10.964A57.8,57.8,0,0,1,744.554,1104.571Z"/><path class="cls-26" d="M1086.078,695.933l14.763,4.5a92.542,92.542,0,0,0,80.319-12.878l24.481-17.258-67.182,54.489Z"/><path class="cls-42" d="M876.32,434.87c-30.775,17.055-65.939,24.116-98.873,36.5-21.885,8.229-43.74,19.819-60.03,36.15-13.649,13.683-6.715,36.929,12.168,41.047,21.764,4.745,45.165,3.312,66.866-2.384,32.878-8.63,62.652-26.144,91.384-44.309,11.965-7.566,25.289-18.092,24.965-31.936a1.873,1.873,0,0,0-1.548-1.816c-19.455-3.142-38.957,5.315-56.647,14.221a802.491,802.491,0,0,0-89.672,52.693q-.657.446-1.315.9c-22.671,15.612-6.049,51.066,20.414,43.485a527.359,527.359,0,0,0,80.745-30.469c11.693-5.546,24.242-12.786,28.921-24.53a1.862,1.862,0,0,0-2.031-2.528,173.189,173.189,0,0,0-69.556,28.654c-8.9,6.234-17.538,13.743-21.537,23.851s-1.927,23.309,7.189,29.229c6.578,4.273,15.052,3.946,22.843,3.035a213.526,213.526,0,0,0,77.254-24.637,1.857,1.857,0,0,0-1.707-3.3,159.467,159.467,0,0,0-41,28.871,1.865,1.865,0,0,0,1.381,3.2,38.087,38.087,0,0,0,19.929-7.04,1.856,1.856,0,0,1,2.934,1.458,132.554,132.554,0,0,1-1.518,24.752,1.835,1.835,0,0,0,1.2,2.039,13,13,0,0,0,8.612-.164"/></g><g id="Paper_Plane" data-name="Paper Plane"><polygon class="cls-12" points="1771.934 511.148 1626.705 504.006 1896.925 593.881 1771.934 511.148"/><polygon class="cls-12" points="1799.908 512.338 1896.925 593.881 1825.501 473.651 1799.908 512.338"/><polygon class="cls-43" points="1749.938 544.993 1732.651 565.311 1896.925 593.881 1749.938 544.993"/><polygon class="cls-43" points="1799.908 512.338 1795.617 526.824 1896.925 593.881 1799.908 512.338"/><polygon class="cls-35" points="544.045 1099.033 666.121 1178.025 394.265 1093.225 544.045 1099.033"/><polygon class="cls-35" points="520.638 1083.666 394.265 1093.225 522.447 1037.315 520.638 1083.666"/><polygon class="cls-34" points="542.142 1139.352 544.314 1165.941 394.265 1093.225 542.142 1139.352"/><polygon class="cls-34" points="520.638 1083.666 515.665 1097.932 394.265 1093.225 520.638 1083.666"/><path class="cls-44" d="M656.5,1152.111q6.792,1.315,13.624,2.694"/><path class="cls-45" d="M697.414,1160.835c36.254,8.845,71.4,21.507,99.587,45.371,38.743,32.806,58.69,93.56,30.364,135.688-6.445,9.585-16.332,18.263-27.88,18.023s-22.121-13.922-15.9-23.655c3.106-4.862,9.046-7.092,14.725-8.106,39.173-6.991,73.02,28.821,89.721,64.938,26.667,57.668,30.58,125.346,11.6,185.9"/><path class="cls-44" d="M895.074,1592.208q-2.443,6.5-5.254,12.859"/><path class="cls-46" d="M1670.221,540.293c-56.643-3.9-118.144,11.355-167.418-16.853-12.321-7.054-23.71-17.416-27.453-31.11s2.791-30.716,16.391-34.788c11.6-3.471,24.059,3.147,32.215,12.09,27.391,30.032,16.849,80.886-11.565,109.952s-69.109,41.819-108.033,53.529L1316.7,659.484c-17.951,5.4-36.2,10.939-51.793,21.345s-28.419,26.592-30.173,45.256"/></g></svg>