<?xml version="1.0" encoding="UTF-8"?>
<svg version="1.1" xmlns="http://www.w3.org/2000/svg" width="757" height="78">
<path d="M0 0 C2.23595798 -0.14171565 4.47450956 -0.24290749 6.71337891 -0.3269043 C7.95954987 -0.38758591 9.20572083 -0.44826752 10.48965454 -0.51078796 C14 0 14 0 16.62704468 2.42460632 C18.81439898 5.55771048 20.63123697 8.7973625 22.375 12.1875 C23.00792969 13.31865234 23.64085937 14.44980469 24.29296875 15.61523438 C25.56931787 17.89628601 26.8269576 20.18790975 28.06542969 22.48974609 C31.13241522 28.13798199 34.58137474 33.56004919 38 39 C40.81849011 36.46405988 42.61300741 33.59703988 44.58203125 30.37109375 C45.26716797 29.25283203 45.95230469 28.13457031 46.65820312 26.98242188 C47.37636722 25.80082083 48.09446584 24.61918 48.8125 23.4375 C49.51850356 22.28297272 50.22488048 21.12867366 50.93164062 19.97460938 C51.27677704 19.40851959 51.62191345 18.84242981 51.97750854 18.25918579 C53.01148582 16.57172398 54.05965506 14.89298515 55.10791016 13.21435547 C57.03244163 10.08650513 57.03244163 10.08650513 58.35693359 6.93017578 C59.63671875 4.16015625 59.63671875 4.16015625 63 0 C67.62 0 72.24 0 77 0 C77 24.42 77 48.84 77 74 C71.72 74 66.44 74 61 74 C58.96876925 71.96876925 59.74330382 67.82231134 59.68359375 65.02734375 C59.66281265 64.22970108 59.64203156 63.43205841 59.62062073 62.61024475 C59.55503842 60.05275389 59.49620033 57.4951572 59.4375 54.9375 C59.39432301 53.20767118 59.35070899 51.47785321 59.30664062 49.74804688 C59.19934828 45.4988074 59.09810574 41.2494611 59 37 C58.58637207 37.68626465 58.17274414 38.3725293 57.74658203 39.07958984 C55.87569769 42.17986743 54.00040813 45.27745703 52.125 48.375 C51.47402344 49.45523438 50.82304687 50.53546875 50.15234375 51.6484375 C49.52714844 52.6796875 48.90195312 53.7109375 48.2578125 54.7734375 C47.39373779 56.20308838 47.39373779 56.20308838 46.51220703 57.66162109 C43.86637164 61.75296939 43.86637164 61.75296939 41.08203125 62.546875 C38.45741616 62.78178031 36.54346678 62.72730538 34 62 C30.92386905 59.13375431 29.11130714 55.60481325 27 52 C25.4324225 49.37309638 23.85664544 46.75112721 22.28125 44.12890625 C21.8677832 43.44026489 21.45431641 42.75162354 21.02832031 42.04211426 C20.01909195 40.36128235 19.00957582 38.68062324 18 37 C17.97494385 38.08531006 17.9498877 39.17062012 17.92407227 40.28881836 C17.83016245 44.301316 17.72990233 48.31363382 17.62768555 52.32592773 C17.58427427 54.06514288 17.54260388 55.80440235 17.50268555 57.54370117 C17.44513232 60.03838488 17.3813958 62.5328441 17.31640625 65.02734375 C17.29133751 66.2007859 17.29133751 66.2007859 17.26576233 67.39793396 C17.11387171 72.88612829 17.11387171 72.88612829 16 74 C13.48863896 74.09975032 11.01096585 74.13882183 8.5 74.125 C7.79746094 74.12886719 7.09492188 74.13273437 6.37109375 74.13671875 C1.12661378 74.12661378 1.12661378 74.12661378 0 73 C-0.09439978 70.73008113 -0.11742226 68.45718033 -0.11352539 66.18530273 C-0.11367142 65.47314606 -0.11381744 64.76098938 -0.1139679 64.0272522 C-0.1132687 61.66266888 -0.10547606 59.29816339 -0.09765625 56.93359375 C-0.09579209 55.29834537 -0.09436818 53.66309643 -0.09336853 52.02784729 C-0.08954318 47.71565215 -0.07971275 43.40349048 -0.06866455 39.09130859 C-0.0584508 34.69434054 -0.05387099 30.29736711 -0.04882812 25.90039062 C-0.03809049 17.26691169 -0.02101387 8.63346 0 0 Z " fill="#ffffff" transform="translate(366,2)"/>
<path d="M0 0 C5.28 0 10.56 0 16 0 C17 1 17 1 17.12025452 3.89161682 C17.11803391 5.18623337 17.11581329 6.48084991 17.11352539 7.81469727 C17.11367142 8.52685394 17.11381744 9.23901062 17.1139679 9.9727478 C17.1132687 12.33733112 17.10547606 14.70183661 17.09765625 17.06640625 C17.09579209 18.70165463 17.09436818 20.33690357 17.09336853 21.97215271 C17.08954318 26.28434785 17.07971275 30.59650952 17.06866455 34.90869141 C17.0584508 39.30565946 17.05387099 43.70263289 17.04882812 48.09960938 C17.03809049 56.73308831 17.02101387 65.36654 17 74 C14.5780754 74.07235985 12.15832269 74.12536218 9.73583984 74.16723633 C9.05202744 74.18965645 8.36821503 74.21207657 7.66368103 74.23517609 C3.6713251 74.28697674 1.15636459 74.15261398 -1.7734375 71.32421875 C-3.12768555 69.58129883 -3.12768555 69.58129883 -4.375 67.6875 C-4.85428955 67.05030029 -5.3335791 66.41310059 -5.82739258 65.7565918 C-6.79574788 64.46690321 -7.74622527 63.16357333 -8.67724609 61.84667969 C-10.55340022 59.22740508 -12.61719756 56.7796998 -14.6875 54.3125 C-16.12598101 52.54246347 -17.56347657 50.77162564 -19 49 C-20.5823448 47.06169258 -22.16567404 45.1241884 -23.75 43.1875 C-24.44609375 42.33542969 -25.1421875 41.48335937 -25.859375 40.60546875 C-28.22558862 37.72542408 -30.61376693 34.86347969 -33 32 C-33.33 46.19 -33.66 60.38 -34 75 C-39.61 75 -45.22 75 -51 75 C-51.02255226 65.49925364 -51.0409158 55.99852493 -51.05181217 46.49775791 C-51.05704069 42.08662996 -51.06413777 37.6755212 -51.07543945 33.2644043 C-51.08626944 29.01098885 -51.09227707 24.75759191 -51.09487724 20.50416374 C-51.09673129 18.87778367 -51.10035152 17.25140466 -51.10573006 15.62503242 C-51.11294198 13.35489807 -51.11399088 11.08484115 -51.11352539 8.81469727 C-51.115746 7.52008072 -51.11796661 6.22546417 -51.12025452 4.89161682 C-51 2 -51 2 -50 1 C-45.46942737 0.07864502 -41.5211261 -0.00359063 -37 1 C-33.08742505 3.99317091 -30.21579347 7.45123731 -27.24804688 11.35839844 C-25.40693189 13.78008412 -23.44521865 16.09909886 -21.5 18.4375 C-20.78328125 19.32695312 -20.0665625 20.21640625 -19.328125 21.1328125 C-16.23765644 24.93885935 -13.06718739 28.6740365 -9.89257812 32.40991211 C-6.90739718 35.92348783 -3.95190632 39.45771241 -1 43 C-0.67 28.81 -0.34 14.62 0 0 Z " fill="#ffffff" transform="translate(262,1)"/>
<path d="M0 0 C1.74208488 -0.02462311 1.74208488 -0.02462311 3.5193634 -0.04974365 C4.64043377 -0.06565237 4.64043377 -0.06565237 5.78415203 -0.08188248 C7.41686378 -0.10487416 9.04958039 -0.12752271 10.68230152 -0.14983749 C14.03781709 -0.19603762 17.39297455 -0.24406785 20.74813843 -0.31164551 C34.47861984 -0.58637563 47.45973986 0.0144904 58 10 C58.55300781 10.51304688 59.10601562 11.02609375 59.67578125 11.5546875 C67.18618613 19.34463598 68.62947493 28.87204379 68.54296875 39.28955078 C68.17503392 48.3940215 65.17096147 56.8192406 58.7734375 63.4765625 C47.20749615 73.41206278 33.58413099 74.48870022 18.97509766 74.28125 C16.71109933 74.24945367 14.44779558 74.24020181 12.18359375 74.234375 C1.16444219 74.16444219 1.16444219 74.16444219 0 73 C-0.09439978 70.73008113 -0.11742226 68.45718033 -0.11352539 66.18530273 C-0.11367142 65.47314606 -0.11381744 64.76098938 -0.1139679 64.0272522 C-0.1132687 61.66266888 -0.10547606 59.29816339 -0.09765625 56.93359375 C-0.09579209 55.29834537 -0.09436818 53.66309643 -0.09336853 52.02784729 C-0.08954318 47.71565215 -0.07971275 43.40349048 -0.06866455 39.09130859 C-0.0584508 34.69434054 -0.05387099 30.29736711 -0.04882812 25.90039062 C-0.03809049 17.26691169 -0.02101387 8.63346 0 0 Z M17 15 C17 29.52 17 44.04 17 59 C32.41539069 59.64275609 32.41539069 59.64275609 45.375 53.6875 C50.33217217 48.61229992 51.60929772 43.81303075 52.0625 36.8828125 C51.93212924 30.86946139 50.45680941 25.91466379 46.8125 21.125 C36.13158562 13.0549758 31.81956259 15 17 15 Z " fill="#ffffff" transform="translate(288,2)"/>
<path d="M0 0 C5.21042023 -0.09555605 10.42001979 -0.17190529 15.63110352 -0.21972656 C17.39910593 -0.23968762 19.16704366 -0.26686652 20.93481445 -0.30175781 C32.31665972 -0.52057757 42.01791598 -0.45664937 51.9375 5.875 C57.37811566 11.4804828 59.60283809 17.02838092 60.375 24.75 C60.1520265 31.12951951 58.27522152 37.49030909 53.953125 42.2578125 C52.02655983 43.94526497 50.08629521 45.51629976 48 47 C49.67508641 52.02525923 52.58129253 56.13325161 55.5 60.5 C61.48453608 69.45360825 61.48453608 69.45360825 63 74 C56.69173119 75.12836189 50.16128188 76.25355245 44 74 C38.91338394 69.48288094 35.91396484 63.15095453 33.02709961 57.0847168 C31.94927304 54.78322808 31.94927304 54.78322808 30 52 C25.67503241 51.27175996 21.38952129 51.21517261 17 51 C17 58.59 17 66.18 17 74 C14.380625 74.020625 11.76125 74.04125 9.0625 74.0625 C8.2362915 74.071604 7.41008301 74.08070801 6.55883789 74.09008789 C4.70566241 74.09723945 2.85250692 74.0502852 1 74 C0 73 0 73 -0.12025452 70.10838318 C-0.11803391 68.81376663 -0.11581329 67.51915009 -0.11352539 66.18530273 C-0.11367142 65.47314606 -0.11381744 64.76098938 -0.1139679 64.0272522 C-0.1132687 61.66266888 -0.10547606 59.29816339 -0.09765625 56.93359375 C-0.09579209 55.29834537 -0.09436818 53.66309643 -0.09336853 52.02784729 C-0.08954318 47.71565215 -0.07971275 43.40349048 -0.06866455 39.09130859 C-0.0584508 34.69434054 -0.05387099 30.29736711 -0.04882812 25.90039062 C-0.03809049 17.26691169 -0.02101387 8.63346 0 0 Z M17 15 C17 21.93 17 28.86 17 36 C19.35125 36.04125 21.7025 36.0825 24.125 36.125 C24.85348145 36.14320801 25.58196289 36.16141602 26.33251953 36.18017578 C32.11865699 36.22882516 36.25875372 35.3248613 40.875 31.8125 C43.57077652 28.24456049 43.55750529 26.38039874 43 22 C42.13198548 18.87514772 41.25554903 18.1633118 38.5 16.40234375 C34.039272 14.61506546 30.36563332 14.66621612 25.625 14.8125 C22.77875 14.874375 19.9325 14.93625 17 15 Z " fill="#ffffff" transform="translate(74,2)"/>
<path d="M0 0 C5.92675877 4.96397306 10.00014193 10.98998546 12.5625 18.25 C12.5625 19.24 12.5625 20.23 12.5625 21.25 C6.9525 21.25 1.3425 21.25 -4.4375 21.25 C-5.7575 18.94 -7.0775 16.63 -8.4375 14.25 C-12.63088957 10.2851601 -17.88048362 9.93444059 -23.4375 9.75 C-29.24491517 9.94854411 -33.89680482 10.44677271 -38.4375 14.25 C-44.43096604 20.79670906 -45.87193919 25.98080502 -45.7734375 34.81640625 C-45.17967559 40.88520531 -43.1606095 45.95601865 -38.4296875 49.94140625 C-31.96026411 54.13101439 -26.07735587 55.10885961 -18.4375 54.25 C-14.01059723 52.91381214 -9.57950129 51.37310205 -7.30078125 47.13671875 C-6.99527344 46.41097656 -6.68976562 45.68523438 -6.375 44.9375 C-5.328125 42.85546875 -5.328125 42.85546875 -3.4375 41.25 C2.1297908 40.18240043 7.95328396 40.80472596 13.5625 41.25 C12.08652204 51.0647337 7.47447866 57.33738655 -0.1171875 63.64453125 C-10.35596974 70.72894118 -21.4222038 72.35735812 -33.5 70.25 C-43.29524052 67.86883656 -51.799169 62.73486704 -57.4375 54.25 C-63.38335516 44.27439583 -64.86986689 33.91642152 -62.97265625 22.4375 C-60.29157224 12.28428244 -53.94601484 4.27686468 -45.4375 -1.75 C-31.27338777 -9.04283159 -13.39402276 -9.31979531 0 0 Z " fill="#ffffff" transform="translate(667.4375,6.75)"/>
<path d="M0 0 C5.82882797 4.89424796 10.10022864 9.93747877 12.5625 17.1875 C12.5625 18.5075 12.5625 19.8275 12.5625 21.1875 C-1.83087746 22.41828762 -1.83087746 22.41828762 -5.625 19.51171875 C-7.0625 17.375 -7.0625 17.375 -8.1015625 15.23046875 C-10.06044302 12.23487076 -12.12254679 11.45406231 -15.4375 10.1875 C-22.51010348 9.33231592 -30.50526231 8.88693927 -36.7890625 12.71484375 C-41.81566993 17.20543854 -44.97232986 22.77219658 -45.67578125 29.44921875 C-45.89528395 36.62349137 -44.68359757 42.5169732 -39.82421875 48.01171875 C-34.12624447 53.22959764 -28.59178738 54.63592669 -20.9609375 54.4296875 C-15.02047051 53.8595498 -11.02422327 52.21381669 -7.0625 47.6875 C-5.40454297 45.57568881 -3.92954657 43.42556986 -2.4375 41.1875 C0.3510289 40.96642213 2.90903181 40.90642465 5.6875 41 C6.81865234 41.02030273 6.81865234 41.02030273 7.97265625 41.04101562 C9.83624127 41.07640015 11.69945978 41.13020833 13.5625 41.1875 C12.69671489 49.39232404 9.42903827 55.8762634 3.3125 61.5 C-6.7858007 69.31732488 -17.88643203 72.12236158 -30.51171875 70.73046875 C-40.86883108 68.80838782 -49.79024361 63.32572979 -56.4375 55.1875 C-62.34448404 45.79850432 -64.89126194 35.50692756 -62.97265625 24.52734375 C-60.49014943 14.08318783 -55.45055688 5.25279342 -46.4375 -0.8125 C-31.85197781 -8.69933433 -14.13684113 -10.02479419 0 0 Z " fill="#ffffff" transform="translate(580.4375,6.8125)"/>
<path d="M0 0 C1.58206057 0.00667536 3.16410534 0.0186375 4.74609375 0.03515625 C5.55240234 0.03966797 6.35871094 0.04417969 7.18945312 0.04882812 C9.18753131 0.06065107 11.18557158 0.07858711 13.18359375 0.09765625 C16.0978597 6.49335505 18.7578814 12.96041008 21.30078125 19.51171875 C21.68042023 20.48442719 22.0600592 21.45713562 22.45120239 22.45932007 C23.65565276 25.54632868 24.85726769 28.63443063 26.05859375 31.72265625 C27.2501042 34.78107621 28.44222889 37.83925485 29.6350708 40.89715576 C30.40691127 42.8766059 31.17771863 44.85645922 31.94744873 46.83673096 C33.6301394 51.15833478 35.32557294 55.47211574 37.09082031 59.76074219 C37.37490753 60.45388519 37.65899475 61.1470282 37.95169067 61.86117554 C38.6923459 63.65915293 39.44172861 65.45352851 40.19189453 67.24755859 C41.18359375 70.09765625 41.18359375 70.09765625 41.18359375 74.09765625 C35.24359375 74.09765625 29.30359375 74.09765625 23.18359375 74.09765625 C18.18359375 61.34765625 18.18359375 61.34765625 18.18359375 59.09765625 C8.94359375 59.42765625 -0.29640625 59.75765625 -9.81640625 60.09765625 C-11.46640625 64.38765625 -13.11640625 68.67765625 -14.81640625 73.09765625 C-15.81640625 74.09765625 -15.81640625 74.09765625 -19.4140625 74.1953125 C-20.90237492 74.18863845 -22.39067057 74.17667808 -23.87890625 74.16015625 C-24.63751953 74.15564453 -25.39613281 74.15113281 -26.17773438 74.14648438 C-28.05732496 74.13466305 -29.93687524 74.11672703 -31.81640625 74.09765625 C-30.48682457 67.32626525 -28.49009883 61.18768312 -25.9296875 54.7890625 C-25.5495903 53.82346909 -25.1694931 52.85787567 -24.77787781 51.86302185 C-23.5677886 48.79289393 -22.34861064 45.72647517 -21.12890625 42.66015625 C-20.32945557 40.63761576 -19.53062249 38.61483103 -18.73242188 36.59179688 C-17.55617781 33.6113235 -16.37896502 30.63126124 -15.19778442 27.65274048 C-13.3494603 22.99147469 -11.51257338 18.3265393 -9.70849609 13.64794922 C-9.38423141 12.80747543 -9.05996674 11.96700165 -8.72587585 11.10105896 C-8.12131512 9.53040058 -7.5189922 7.9588784 -6.91926575 6.3863678 C-4.50548797 0.11528884 -4.50548797 0.11528884 0 0 Z M3.18359375 21.09765625 C1.84506579 24.72075953 0.51365657 28.34643769 -0.81640625 31.97265625 C-1.19796875 33.00519531 -1.57953125 34.03773437 -1.97265625 35.1015625 C-2.33359375 36.08769531 -2.69453125 37.07382812 -3.06640625 38.08984375 C-3.4015625 39.0010498 -3.73671875 39.91225586 -4.08203125 40.85107422 C-4.9199751 43.02056412 -4.9199751 43.02056412 -4.81640625 45.09765625 C1.12359375 45.09765625 7.06359375 45.09765625 13.18359375 45.09765625 C12.0618807 41.84648794 10.93636846 38.59672149 9.80859375 35.34765625 C9.33292969 33.96707031 9.33292969 33.96707031 8.84765625 32.55859375 C8.38359375 31.22441406 8.38359375 31.22441406 7.91015625 29.86328125 C7.62736816 29.04633789 7.34458008 28.22939453 7.05322266 27.38769531 C6.2242031 25.20459496 5.2668649 23.16458741 4.18359375 21.09765625 C3.85359375 21.09765625 3.52359375 21.09765625 3.18359375 21.09765625 Z " fill="#ffffff" transform="translate(714.81640625,1.90234375)"/>
<path d="M0 0 C21.45 0 42.9 0 65 0 C65 4.62 65 9.24 65 14 C64 15 64 15 61.77514648 15.11352539 C60.81680908 15.10828857 59.85847168 15.10305176 58.87109375 15.09765625 C57.31938477 15.09282227 57.31938477 15.09282227 55.73632812 15.08789062 C54.64771484 15.07951172 53.55910156 15.07113281 52.4375 15.0625 C50.7987793 15.05573242 50.7987793 15.05573242 49.12695312 15.04882812 C46.41791505 15.03699826 43.70898401 15.02051543 41 15 C41.00222061 15.72440781 41.00444122 16.44881561 41.00672913 17.19517517 C41.02673227 24.00843453 41.04197425 30.82168953 41.05181217 37.63497066 C41.05703989 41.13808885 41.0641355 44.64118285 41.07543945 48.14428711 C41.08834206 52.16780841 41.09322912 56.19130414 41.09765625 60.21484375 C41.10281754 61.47836166 41.10797882 62.74187958 41.11329651 64.04368591 C41.11337204 65.204814 41.11344757 66.36594208 41.11352539 67.56225586 C41.115746 68.59039902 41.11796661 69.61854218 41.12025452 70.67784119 C41 73 41 73 40 74 C34.72 74 29.44 74 24 74 C24 54.53 24 35.06 24 15 C16.08 15 8.16 15 0 15 C0 10.05 0 5.1 0 0 Z " fill="#ffffff" transform="translate(0,2)"/>
<path d="M0 0 C18.15 0 36.3 0 55 0 C55 4.62 55 9.24 55 14 C54 15 54 15 51.82969666 15.12025452 C50.87261307 15.11803391 49.91552948 15.11581329 48.92944336 15.11352539 C47.84839828 15.11344986 46.76735321 15.11337433 45.65354919 15.11329651 C43.889515 15.10555458 43.889515 15.10555458 42.08984375 15.09765625 C40.89267227 15.0962413 39.69550079 15.09482635 38.46205139 15.09336853 C34.62050934 15.08774979 30.77902457 15.07519411 26.9375 15.0625 C24.34049563 15.05748741 21.74349035 15.05292409 19.14648438 15.04882812 C12.76430068 15.03777427 6.38216007 15.02049708 0 15 C0 10.05 0 5.1 0 0 Z " fill="#ffffff" transform="translate(453,61)"/>
<path d="M0 0 C18.15 0 36.3 0 55 0 C55 4.62 55 9.24 55 14 C54 15 54 15 51.82969666 15.12025452 C50.87261307 15.11803391 49.91552948 15.11581329 48.92944336 15.11352539 C47.84839828 15.11344986 46.76735321 15.11337433 45.65354919 15.11329651 C43.889515 15.10555458 43.889515 15.10555458 42.08984375 15.09765625 C40.89267227 15.0962413 39.69550079 15.09482635 38.46205139 15.09336853 C34.62050934 15.08774979 30.77902457 15.07519411 26.9375 15.0625 C24.34049563 15.05748741 21.74349035 15.05292409 19.14648438 15.04882812 C12.76430068 15.03777427 6.38216007 15.02049708 0 15 C0 10.05 0 5.1 0 0 Z " fill="#ffffff" transform="translate(147,61)"/>
<path d="M0 0 C7.67211673 -0.02463993 15.34421065 -0.04283123 23.01635742 -0.05493164 C25.62866619 -0.05997377 28.24097211 -0.06680725 30.85327148 -0.07543945 C34.59880268 -0.08751036 38.34429672 -0.09322935 42.08984375 -0.09765625 C43.26586655 -0.10281754 44.44188934 -0.10797882 45.65354919 -0.11329651 C46.73459427 -0.11337204 47.81563934 -0.11344757 48.92944336 -0.11352539 C49.88652695 -0.115746 50.84361053 -0.11796661 51.82969666 -0.12025452 C54 0 54 0 55 1 C55 5.62 55 10.24 55 15 C36.85 15 18.7 15 0 15 C0 10.05 0 5.1 0 0 Z " fill="#ffffff" transform="translate(453,31)"/>
<path d="M0 0 C7.67211673 -0.02463993 15.34421065 -0.04283123 23.01635742 -0.05493164 C25.62866619 -0.05997377 28.24097211 -0.06680725 30.85327148 -0.07543945 C34.59880268 -0.08751036 38.34429672 -0.09322935 42.08984375 -0.09765625 C43.26586655 -0.10281754 44.44188934 -0.10797882 45.65354919 -0.11329651 C46.73459427 -0.11337204 47.81563934 -0.11344757 48.92944336 -0.11352539 C49.88652695 -0.115746 50.84361053 -0.11796661 51.82969666 -0.12025452 C54 0 54 0 55 1 C55 5.62 55 10.24 55 15 C36.85 15 18.7 15 0 15 C0 10.05 0 5.1 0 0 Z " fill="#ffffff" transform="translate(147,31)"/>
<path d="M0 0 C18.15 0 36.3 0 55 0 C55 4.62 55 9.24 55 14 C54 15 54 15 51.82969666 15.12025452 C50.87261307 15.11803391 49.91552948 15.11581329 48.92944336 15.11352539 C47.84839828 15.11344986 46.76735321 15.11337433 45.65354919 15.11329651 C43.889515 15.10555458 43.889515 15.10555458 42.08984375 15.09765625 C40.89267227 15.0962413 39.69550079 15.09482635 38.46205139 15.09336853 C34.62050934 15.08774979 30.77902457 15.07519411 26.9375 15.0625 C24.34049563 15.05748741 21.74349035 15.05292409 19.14648438 15.04882812 C12.76430068 15.03777427 6.38216007 15.02049708 0 15 C0 10.05 0 5.1 0 0 Z " fill="#ffffff" transform="translate(453,2)"/>
<path d="M0 0 C18.15 0 36.3 0 55 0 C55 4.62 55 9.24 55 14 C54 15 54 15 51.82969666 15.12025452 C50.87261307 15.11803391 49.91552948 15.11581329 48.92944336 15.11352539 C47.84839828 15.11344986 46.76735321 15.11337433 45.65354919 15.11329651 C43.889515 15.10555458 43.889515 15.10555458 42.08984375 15.09765625 C40.89267227 15.0962413 39.69550079 15.09482635 38.46205139 15.09336853 C34.62050934 15.08774979 30.77902457 15.07519411 26.9375 15.0625 C24.34049563 15.05748741 21.74349035 15.05292409 19.14648438 15.04882812 C12.76430068 15.03777427 6.38216007 15.02049708 0 15 C0 10.05 0 5.1 0 0 Z " fill="#ffffff" transform="translate(147,2)"/>
<path d="M0 0 C2.18625 0.20625 4.3725 0.4125 6.625 0.625 C6.625 5.575 6.625 10.525 6.625 15.625 C-0.635 15.625 -7.895 15.625 -15.375 15.625 C-14.715 13.975 -14.055 12.325 -13.375 10.625 C-13.03984375 9.74199219 -12.7046875 8.85898438 -12.359375 7.94921875 C-9.35230149 1.52588135 -7.22060348 -0.03646769 0 0 Z " fill="#F40000" transform="translate(436.375,1.375)"/>
</svg>
