<?xml version="1.0" encoding="UTF-8"?>
<svg version="1.1" xmlns="http://www.w3.org/2000/svg" width="58" height="30">
<path d="M0 0 C29.02288687 -2.23385157 29.02288687 -2.23385157 35.44628906 1.37402344 C39.05311377 4.96876498 40.71640123 9.13844718 42 14 C42.56847656 12.989375 43.13695312 11.97875 43.72265625 10.9375 C44.50125575 9.62419964 45.28127882 8.31174253 46.0625 7 C46.43310547 6.33226562 46.80371094 5.66453125 47.18554688 4.9765625 C47.56904297 4.34492187 47.95253906 3.71328125 48.34765625 3.0625 C48.68804932 2.47597656 49.02844238 1.88945312 49.37915039 1.28515625 C51 0 51 0 58 0 C58 9.9 58 19.8 58 30 C55.36 30 52.72 30 50 30 C49.505 24.555 49.505 24.555 49 19 C47.68 21.31 46.36 23.62 45 26 C43.02 26 41.04 26 39 26 C37.68 23.69 36.36 21.38 35 19 C34.67 22.63 34.34 26.26 34 30 C31.36 30 28.72 30 26 30 C26 22.41 26 14.82 26 7 C23.36 7 20.72 7 18 7 C18 14.59 18 22.18 18 30 C15.36 30 12.72 30 10 30 C10 22.41 10 14.82 10 7 C6.7 7 3.4 7 0 7 C0 4.69 0 2.38 0 0 Z " fill="#ffffff" transform="translate(0,0)"/>
<path d="M0 0 C1.134375 0.020625 2.26875 0.04125 3.4375 0.0625 C3.4375 2.0425 3.4375 4.0225 3.4375 6.0625 C0.4675 6.0625 -2.5025 6.0625 -5.5625 6.0625 C-4.48849278 0.07874549 -4.48849278 0.07874549 0 0 Z " fill="#F60000" transform="translate(54.5625,-0.0625)"/>
</svg>
